<mxfile host="app.diagrams.net" agent="Mozilla/5.0 (Windows NT 10.0; Win64; x64) AppleWebKit/537.36 (KHTML, like Gecko) Chrome/129.0.0.0 Safari/537.36" version="24.7.17" pages="4">
  <diagram name="Carteira" id="b3HP_LkzyImZGjyCMO4g">
    <mxGraphModel grid="0" page="0" gridSize="10" guides="1" tooltips="1" connect="1" arrows="1" fold="1" pageScale="1" pageWidth="850" pageHeight="1100" math="0" shadow="0">
      <root>
        <mxCell id="0" />
        <mxCell id="1" parent="0" />
        <mxCell id="10cFWc2lSb1qNVFeYpyu-24" style="edgeStyle=orthogonalEdgeStyle;rounded=0;orthogonalLoop=1;jettySize=auto;html=1;entryX=0.5;entryY=0;entryDx=0;entryDy=0;" edge="1" parent="1" source="10cFWc2lSb1qNVFeYpyu-16" target="10cFWc2lSb1qNVFeYpyu-20">
          <mxGeometry relative="1" as="geometry" />
        </mxCell>
        <mxCell id="10cFWc2lSb1qNVFeYpyu-23" value="&lt;font style=&quot;font-size: 10px;&quot;&gt;[Se grupo já existente]&lt;/font&gt;" style="text;html=1;align=center;verticalAlign=middle;resizable=0;points=[];autosize=1;strokeColor=none;fillColor=none;shadow=1;" vertex="1" parent="1">
          <mxGeometry x="-209" y="1590" width="120" height="30" as="geometry" />
        </mxCell>
        <mxCell id="10cFWc2lSb1qNVFeYpyu-28" style="edgeStyle=orthogonalEdgeStyle;rounded=0;orthogonalLoop=1;jettySize=auto;html=1;entryX=0;entryY=0.5;entryDx=0;entryDy=0;" edge="1" parent="1" source="10cFWc2lSb1qNVFeYpyu-16" target="10cFWc2lSb1qNVFeYpyu-26">
          <mxGeometry relative="1" as="geometry" />
        </mxCell>
        <mxCell id="10cFWc2lSb1qNVFeYpyu-16" value="" style="ellipse;" vertex="1" parent="1">
          <mxGeometry x="-106" y="1536" width="21" height="19" as="geometry" />
        </mxCell>
        <mxCell id="10cFWc2lSb1qNVFeYpyu-18" value="&lt;font style=&quot;font-size: 10px;&quot;&gt;Deseja agrupar ações?&lt;/font&gt;" style="text;html=1;align=center;verticalAlign=middle;resizable=0;points=[];autosize=1;strokeColor=none;fillColor=none;" vertex="1" parent="1">
          <mxGeometry x="-160.5" y="1510" width="130" height="30" as="geometry" />
        </mxCell>
        <mxCell id="10cFWc2lSb1qNVFeYpyu-19" style="edgeStyle=orthogonalEdgeStyle;rounded=0;orthogonalLoop=1;jettySize=auto;html=1;entryX=0;entryY=0.5;entryDx=0;entryDy=0;" edge="1" parent="1" source="10cFWc2lSb1qNVFeYpyu-1" target="xTzN-XvupT4PCDSy4PHw-2">
          <mxGeometry relative="1" as="geometry" />
        </mxCell>
        <mxCell id="10cFWc2lSb1qNVFeYpyu-1" value="" style="ellipse;html=1;shape=startState;fillColor=#000000;strokeColor=#ff0000;" vertex="1" parent="1">
          <mxGeometry x="-500" y="1530.5" width="30" height="30" as="geometry" />
        </mxCell>
        <mxCell id="10cFWc2lSb1qNVFeYpyu-17" style="edgeStyle=orthogonalEdgeStyle;rounded=0;orthogonalLoop=1;jettySize=auto;html=1;exitX=1;exitY=0.5;exitDx=0;exitDy=0;entryX=0;entryY=0.5;entryDx=0;entryDy=0;" edge="1" parent="1" source="xTzN-XvupT4PCDSy4PHw-2" target="10cFWc2lSb1qNVFeYpyu-16">
          <mxGeometry relative="1" as="geometry">
            <mxPoint x="-180.00000000000023" y="1545" as="sourcePoint" />
            <mxPoint x="-31" y="1545" as="targetPoint" />
          </mxGeometry>
        </mxCell>
        <mxCell id="xTzN-XvupT4PCDSy4PHw-2" value="&lt;b&gt;&lt;font style=&quot;font-size: 10px;&quot;&gt;Carregando as&amp;nbsp;&lt;/font&gt;&lt;/b&gt;&lt;div&gt;&lt;b&gt;&lt;font style=&quot;font-size: 10px;&quot;&gt;Informações&lt;/font&gt;&lt;/b&gt;&lt;/div&gt;" style="swimlane;fontStyle=4;align=center;verticalAlign=top;childLayout=stackLayout;horizontal=1;startSize=40;horizontalStack=0;resizeParent=1;resizeParentMax=0;resizeLast=0;collapsible=0;marginBottom=0;html=1;rounded=1;absoluteArcSize=1;arcSize=32;whiteSpace=wrap;" vertex="1" parent="1">
          <mxGeometry x="-339" y="1510" width="130" height="70" as="geometry" />
        </mxCell>
        <mxCell id="10cFWc2lSb1qNVFeYpyu-14" value="&lt;font style=&quot;font-size: 10px;&quot;&gt;do/consultarCarteira()&amp;nbsp;&lt;/font&gt;" style="text;html=1;align=center;verticalAlign=middle;resizable=0;points=[];autosize=1;strokeColor=none;fillColor=none;" vertex="1" parent="xTzN-XvupT4PCDSy4PHw-2">
          <mxGeometry y="40" width="130" height="30" as="geometry" />
        </mxCell>
        <mxCell id="10cFWc2lSb1qNVFeYpyu-11" value="&lt;font style=&quot;font-size: 10px;&quot;&gt;Consultar Carteira&lt;/font&gt;" style="text;html=1;align=center;verticalAlign=middle;resizable=0;points=[];autosize=1;strokeColor=none;fillColor=none;" vertex="1" parent="1">
          <mxGeometry x="-450" y="1520" width="100" height="30" as="geometry" />
        </mxCell>
        <mxCell id="10cFWc2lSb1qNVFeYpyu-42" style="edgeStyle=orthogonalEdgeStyle;rounded=0;orthogonalLoop=1;jettySize=auto;html=1;entryX=0;entryY=0.5;entryDx=0;entryDy=0;" edge="1" parent="1" source="10cFWc2lSb1qNVFeYpyu-20" target="10cFWc2lSb1qNVFeYpyu-31">
          <mxGeometry relative="1" as="geometry" />
        </mxCell>
        <mxCell id="10cFWc2lSb1qNVFeYpyu-20" value="&lt;span style=&quot;font-size: 10px;&quot;&gt;&lt;b&gt;Agrupando as&lt;/b&gt;&lt;/span&gt;&lt;div&gt;&lt;span style=&quot;font-size: 10px;&quot;&gt;&lt;b&gt;ações&lt;/b&gt;&lt;/span&gt;&lt;/div&gt;" style="swimlane;fontStyle=4;align=center;verticalAlign=top;childLayout=stackLayout;horizontal=1;startSize=40;horizontalStack=0;resizeParent=1;resizeParentMax=0;resizeLast=0;collapsible=0;marginBottom=0;html=1;rounded=1;absoluteArcSize=1;arcSize=32;whiteSpace=wrap;" vertex="1" parent="1">
          <mxGeometry x="-160.5" y="1650" width="130" height="70" as="geometry" />
        </mxCell>
        <mxCell id="10cFWc2lSb1qNVFeYpyu-21" value="&lt;font style=&quot;font-size: 10px;&quot;&gt;do/agruparAcoes()&amp;nbsp;&lt;/font&gt;" style="text;html=1;align=center;verticalAlign=middle;resizable=0;points=[];autosize=1;strokeColor=none;fillColor=none;" vertex="1" parent="10cFWc2lSb1qNVFeYpyu-20">
          <mxGeometry y="40" width="130" height="30" as="geometry" />
        </mxCell>
        <mxCell id="10cFWc2lSb1qNVFeYpyu-26" value="&lt;span style=&quot;font-size: 10px;&quot;&gt;&lt;b&gt;Criando novo grupo&lt;/b&gt;&lt;/span&gt;" style="swimlane;fontStyle=4;align=center;verticalAlign=top;childLayout=stackLayout;horizontal=1;startSize=29;horizontalStack=0;resizeParent=1;resizeParentMax=0;resizeLast=0;collapsible=0;marginBottom=0;html=1;rounded=1;absoluteArcSize=1;arcSize=32;whiteSpace=wrap;" vertex="1" parent="1">
          <mxGeometry x="89" y="1515.5" width="130" height="59" as="geometry" />
        </mxCell>
        <mxCell id="10cFWc2lSb1qNVFeYpyu-27" value="&lt;font style=&quot;font-size: 10px;&quot;&gt;do/criarGrupo()&amp;nbsp;&lt;/font&gt;" style="text;html=1;align=center;verticalAlign=middle;resizable=0;points=[];autosize=1;strokeColor=none;fillColor=none;" vertex="1" parent="10cFWc2lSb1qNVFeYpyu-26">
          <mxGeometry y="29" width="130" height="30" as="geometry" />
        </mxCell>
        <mxCell id="10cFWc2lSb1qNVFeYpyu-29" value="&lt;font style=&quot;font-size: 10px;&quot;&gt;[Se grupo não existe]&lt;/font&gt;" style="text;html=1;align=center;verticalAlign=middle;resizable=0;points=[];autosize=1;strokeColor=none;fillColor=none;" vertex="1" parent="1">
          <mxGeometry x="-50" y="1518" width="120" height="30" as="geometry" />
        </mxCell>
        <mxCell id="10cFWc2lSb1qNVFeYpyu-31" value="" style="ellipse;html=1;shape=endState;fillColor=#000000;strokeColor=#ff0000;" vertex="1" parent="1">
          <mxGeometry x="126" y="1670" width="30" height="30" as="geometry" />
        </mxCell>
        <mxCell id="10cFWc2lSb1qNVFeYpyu-36" style="edgeStyle=orthogonalEdgeStyle;rounded=0;orthogonalLoop=1;jettySize=auto;html=1;entryX=0;entryY=0.5;entryDx=0;entryDy=0;" edge="1" parent="1" source="10cFWc2lSb1qNVFeYpyu-26" target="10cFWc2lSb1qNVFeYpyu-37">
          <mxGeometry relative="1" as="geometry">
            <mxPoint x="310" y="1545.5" as="targetPoint" />
          </mxGeometry>
        </mxCell>
        <mxCell id="10cFWc2lSb1qNVFeYpyu-41" style="edgeStyle=orthogonalEdgeStyle;rounded=0;orthogonalLoop=1;jettySize=auto;html=1;entryX=0;entryY=0.5;entryDx=0;entryDy=0;" edge="1" parent="1" source="10cFWc2lSb1qNVFeYpyu-37" target="10cFWc2lSb1qNVFeYpyu-40">
          <mxGeometry relative="1" as="geometry" />
        </mxCell>
        <mxCell id="10cFWc2lSb1qNVFeYpyu-37" value="&lt;span style=&quot;font-size: 10px;&quot;&gt;&lt;b&gt;Agrupando as&lt;/b&gt;&lt;/span&gt;&lt;div&gt;&lt;span style=&quot;font-size: 10px;&quot;&gt;&lt;b&gt;ações&lt;/b&gt;&lt;/span&gt;&lt;/div&gt;" style="swimlane;fontStyle=4;align=center;verticalAlign=top;childLayout=stackLayout;horizontal=1;startSize=40;horizontalStack=0;resizeParent=1;resizeParentMax=0;resizeLast=0;collapsible=0;marginBottom=0;html=1;rounded=1;absoluteArcSize=1;arcSize=32;whiteSpace=wrap;" vertex="1" parent="1">
          <mxGeometry x="320" y="1510" width="130" height="70" as="geometry" />
        </mxCell>
        <mxCell id="10cFWc2lSb1qNVFeYpyu-38" value="&lt;font style=&quot;font-size: 10px;&quot;&gt;do/agruparAcoes()&amp;nbsp;&lt;/font&gt;" style="text;html=1;align=center;verticalAlign=middle;resizable=0;points=[];autosize=1;strokeColor=none;fillColor=none;" vertex="1" parent="10cFWc2lSb1qNVFeYpyu-37">
          <mxGeometry y="40" width="130" height="30" as="geometry" />
        </mxCell>
        <mxCell id="10cFWc2lSb1qNVFeYpyu-39" value="&lt;font style=&quot;font-size: 10px;&quot;&gt;Agrupa ações&lt;/font&gt;" style="text;html=1;align=center;verticalAlign=middle;resizable=0;points=[];autosize=1;strokeColor=none;fillColor=none;" vertex="1" parent="1">
          <mxGeometry x="219" y="1520" width="90" height="30" as="geometry" />
        </mxCell>
        <mxCell id="10cFWc2lSb1qNVFeYpyu-40" value="" style="ellipse;html=1;shape=endState;fillColor=#000000;strokeColor=#ff0000;" vertex="1" parent="1">
          <mxGeometry x="560" y="1530.5" width="30" height="30" as="geometry" />
        </mxCell>
      </root>
    </mxGraphModel>
  </diagram>
  <diagram id="18IqbAT-5xsGC6ogQ22v" name="Usuário">
    <mxGraphModel grid="0" page="0" gridSize="10" guides="1" tooltips="1" connect="1" arrows="1" fold="1" pageScale="1" pageWidth="827" pageHeight="1169" math="0" shadow="0">
      <root>
        <mxCell id="0" />
        <mxCell id="1" parent="0" />
        <mxCell id="M5AaKQTxuIL4Br_csM94-1" value="Usuário acessa o portal" style="swimlane;fontStyle=4;align=center;verticalAlign=middle;childLayout=stackLayout;horizontal=1;startSize=28;horizontalStack=0;resizeParent=1;resizeParentMax=0;resizeLast=0;collapsible=0;marginBottom=0;html=1;rounded=1;absoluteArcSize=1;arcSize=50;whiteSpace=wrap;fontSize=10;" vertex="1" parent="1">
          <mxGeometry x="843.5" y="1401" width="157" height="49" as="geometry" />
        </mxCell>
        <mxCell id="M5AaKQTxuIL4Br_csM94-2" value="" style="ellipse;" vertex="1" parent="1">
          <mxGeometry x="219" y="1426.5" width="11" height="11" as="geometry" />
        </mxCell>
        <mxCell id="M5AaKQTxuIL4Br_csM94-3" style="edgeStyle=orthogonalEdgeStyle;rounded=0;orthogonalLoop=1;jettySize=auto;html=1;entryX=-0.015;entryY=0.157;entryDx=0;entryDy=0;entryPerimeter=0;" edge="1" parent="1" source="M5AaKQTxuIL4Br_csM94-2" target="M5AaKQTxuIL4Br_csM94-11">
          <mxGeometry relative="1" as="geometry" />
        </mxCell>
        <mxCell id="M5AaKQTxuIL4Br_csM94-4" style="edgeStyle=orthogonalEdgeStyle;rounded=0;orthogonalLoop=1;jettySize=auto;html=1;" edge="1" parent="1" source="M5AaKQTxuIL4Br_csM94-6">
          <mxGeometry relative="1" as="geometry">
            <mxPoint x="457.91379310344837" y="1567.5" as="targetPoint" />
          </mxGeometry>
        </mxCell>
        <mxCell id="M5AaKQTxuIL4Br_csM94-5" value="&lt;font style=&quot;font-size: 10px;&quot;&gt;Sim&lt;/font&gt;" style="text;html=1;align=center;verticalAlign=middle;resizable=0;points=[];autosize=1;strokeColor=none;fillColor=none;" vertex="1" parent="1">
          <mxGeometry x="327.5" y="1408" width="35" height="26" as="geometry" />
        </mxCell>
        <mxCell id="M5AaKQTxuIL4Br_csM94-6" value="Preencher informações cadastrais" style="swimlane;fontStyle=4;align=center;verticalAlign=middle;childLayout=stackLayout;horizontal=1;startSize=28;horizontalStack=0;resizeParent=1;resizeParentMax=0;resizeLast=0;collapsible=0;marginBottom=0;html=1;rounded=1;absoluteArcSize=1;arcSize=50;whiteSpace=wrap;fontSize=10;" vertex="1" parent="1">
          <mxGeometry x="238.5" y="1543" width="157" height="49" as="geometry" />
        </mxCell>
        <mxCell id="M5AaKQTxuIL4Br_csM94-7" value="do/cadastrar()" style="fillColor=none;strokeColor=none;align=center;verticalAlign=middle;spacingLeft=5;whiteSpace=wrap;html=1;fontSize=10;" vertex="1" parent="M5AaKQTxuIL4Br_csM94-6">
          <mxGeometry y="28" width="157" height="21" as="geometry" />
        </mxCell>
        <mxCell id="2TubfHMEokGBwp1bfRXk-8" value="Usuário acessa o&lt;br style=&quot;font-size: 10px;&quot;&gt;&amp;nbsp;sistema com sucesso" style="text;html=1;align=center;verticalAlign=middle;resizable=0;points=[];autosize=1;strokeColor=none;fillColor=none;fontSize=10;" vertex="1" parent="1">
          <mxGeometry x="996" y="1426.5" width="116" height="36" as="geometry" />
        </mxCell>
        <mxCell id="M5AaKQTxuIL4Br_csM94-9" value="" style="edgeStyle=orthogonalEdgeStyle;html=1;verticalAlign=bottom;endArrow=open;endSize=8;strokeColor=#000000;rounded=0;exitX=1;exitY=0.5;exitDx=0;exitDy=0;entryX=0;entryY=0.5;entryDx=0;entryDy=0;" edge="1" parent="1" source="M5AaKQTxuIL4Br_csM94-12" target="M5AaKQTxuIL4Br_csM94-2">
          <mxGeometry relative="1" as="geometry">
            <mxPoint x="364.5" y="1432" as="targetPoint" />
            <mxPoint x="104.5" y="1431.9899999999998" as="sourcePoint" />
            <Array as="points" />
          </mxGeometry>
        </mxCell>
        <mxCell id="M5AaKQTxuIL4Br_csM94-10" value="Preencher informações de acesso" style="swimlane;fontStyle=4;align=center;verticalAlign=middle;childLayout=stackLayout;horizontal=1;startSize=28;horizontalStack=0;resizeParent=1;resizeParentMax=0;resizeLast=0;collapsible=0;marginBottom=0;html=1;rounded=1;absoluteArcSize=1;arcSize=50;whiteSpace=wrap;fontSize=10;" vertex="1" parent="1">
          <mxGeometry x="368" y="1401" width="157" height="49" as="geometry" />
        </mxCell>
        <mxCell id="M5AaKQTxuIL4Br_csM94-11" value="do/logar()" style="fillColor=none;strokeColor=none;align=center;verticalAlign=middle;spacingLeft=5;whiteSpace=wrap;html=1;fontSize=10;" vertex="1" parent="M5AaKQTxuIL4Br_csM94-10">
          <mxGeometry y="28" width="157" height="21" as="geometry" />
        </mxCell>
        <mxCell id="M5AaKQTxuIL4Br_csM94-12" value="" style="ellipse;html=1;shape=startState;fillColor=#000000;strokeColor=#ff0000;" vertex="1" parent="1">
          <mxGeometry x="34" y="1417" width="30" height="30" as="geometry" />
        </mxCell>
        <mxCell id="M5AaKQTxuIL4Br_csM94-13" style="edgeStyle=orthogonalEdgeStyle;rounded=0;orthogonalLoop=1;jettySize=auto;html=1;entryX=0;entryY=0.5;entryDx=0;entryDy=0;" edge="1" parent="1" source="M5AaKQTxuIL4Br_csM94-1" target="M5AaKQTxuIL4Br_csM94-14">
          <mxGeometry relative="1" as="geometry">
            <mxPoint x="1046.1206896551726" y="1425.5" as="targetPoint" />
          </mxGeometry>
        </mxCell>
        <mxCell id="M5AaKQTxuIL4Br_csM94-14" value="" style="ellipse;html=1;shape=endState;fillColor=#000000;strokeColor=#ff0000;" vertex="1" parent="1">
          <mxGeometry x="1112" y="1410.5" width="30" height="30" as="geometry" />
        </mxCell>
        <mxCell id="M5AaKQTxuIL4Br_csM94-15" style="edgeStyle=orthogonalEdgeStyle;rounded=0;orthogonalLoop=1;jettySize=auto;html=1;entryX=0.5;entryY=1;entryDx=0;entryDy=0;" edge="1" parent="1" source="M5AaKQTxuIL4Br_csM94-22" target="M5AaKQTxuIL4Br_csM94-11">
          <mxGeometry relative="1" as="geometry" />
        </mxCell>
        <mxCell id="M5AaKQTxuIL4Br_csM94-16" value="Validando os dados de cadastro" style="swimlane;fontStyle=4;align=center;verticalAlign=middle;childLayout=stackLayout;horizontal=1;startSize=28;horizontalStack=0;resizeParent=1;resizeParentMax=0;resizeLast=0;collapsible=0;marginBottom=0;html=1;rounded=1;absoluteArcSize=1;arcSize=50;whiteSpace=wrap;fontSize=10;" vertex="1" parent="1">
          <mxGeometry x="458.5" y="1543" width="157" height="49" as="geometry" />
        </mxCell>
        <mxCell id="M5AaKQTxuIL4Br_csM94-17" value="do/validaDados()" style="fillColor=none;strokeColor=none;align=center;verticalAlign=middle;spacingLeft=5;whiteSpace=wrap;html=1;fontSize=10;" vertex="1" parent="M5AaKQTxuIL4Br_csM94-16">
          <mxGeometry y="28" width="157" height="21" as="geometry" />
        </mxCell>
        <mxCell id="M5AaKQTxuIL4Br_csM94-18" style="edgeStyle=orthogonalEdgeStyle;rounded=0;orthogonalLoop=1;jettySize=auto;html=1;entryX=0;entryY=0;entryDx=0;entryDy=0;" edge="1" parent="1" source="M5AaKQTxuIL4Br_csM94-2">
          <mxGeometry relative="1" as="geometry">
            <mxPoint x="238.5" y="1567" as="targetPoint" />
            <Array as="points">
              <mxPoint x="224.5" y="1567" />
            </Array>
          </mxGeometry>
        </mxCell>
        <mxCell id="M5AaKQTxuIL4Br_csM94-19" value="Não" style="edgeLabel;html=1;align=center;verticalAlign=middle;resizable=0;points=[];" connectable="0" vertex="1" parent="M5AaKQTxuIL4Br_csM94-18">
          <mxGeometry x="0.3951" relative="1" as="geometry">
            <mxPoint as="offset" />
          </mxGeometry>
        </mxCell>
        <mxCell id="M5AaKQTxuIL4Br_csM94-20" value="Dados válidos?" style="text;html=1;align=center;verticalAlign=middle;resizable=0;points=[];autosize=1;strokeColor=none;fillColor=none;fontSize=10;" vertex="1" parent="1">
          <mxGeometry x="500.5" y="1473" width="86" height="24" as="geometry" />
        </mxCell>
        <mxCell id="2TubfHMEokGBwp1bfRXk-21" value="&lt;font style=&quot;font-size: 10px;&quot;&gt;Sim&lt;/font&gt;" style="text;html=1;align=center;verticalAlign=middle;resizable=0;points=[];autosize=1;strokeColor=none;fillColor=none;" vertex="1" parent="1">
          <mxGeometry x="448" y="1475" width="35" height="26" as="geometry" />
        </mxCell>
        <mxCell id="M5AaKQTxuIL4Br_csM94-22" value="" style="ellipse;" vertex="1" parent="1">
          <mxGeometry x="531.5" y="1491" width="11" height="11" as="geometry" />
        </mxCell>
        <mxCell id="2TubfHMEokGBwp1bfRXk-23" style="edgeStyle=orthogonalEdgeStyle;rounded=0;orthogonalLoop=1;jettySize=auto;html=1;exitX=0;exitY=0.5;exitDx=0;exitDy=0;entryX=0.363;entryY=0.981;entryDx=0;entryDy=0;entryPerimeter=0;" edge="1" parent="1">
          <mxGeometry relative="1" as="geometry">
            <mxPoint x="568.5" y="1510.5" as="sourcePoint" />
            <mxPoint x="568.7179999999998" y="1510.544" as="targetPoint" />
          </mxGeometry>
        </mxCell>
        <mxCell id="M5AaKQTxuIL4Br_csM94-23" style="edgeStyle=orthogonalEdgeStyle;rounded=0;orthogonalLoop=1;jettySize=auto;html=1;exitX=0;exitY=0.5;exitDx=0;exitDy=0;entryX=0.363;entryY=0.981;entryDx=0;entryDy=0;entryPerimeter=0;" edge="1" parent="1" source="M5AaKQTxuIL4Br_csM94-22" target="M5AaKQTxuIL4Br_csM94-20">
          <mxGeometry relative="1" as="geometry" />
        </mxCell>
        <mxCell id="M5AaKQTxuIL4Br_csM94-24" value="" style="edgeStyle=orthogonalEdgeStyle;rounded=0;orthogonalLoop=1;jettySize=auto;html=1;entryX=1;entryY=0.5;entryDx=0;entryDy=0;" edge="1" parent="1" source="M5AaKQTxuIL4Br_csM94-16" target="M5AaKQTxuIL4Br_csM94-22">
          <mxGeometry relative="1" as="geometry">
            <mxPoint x="537.5" y="1543" as="sourcePoint" />
            <mxPoint x="441.5" y="1450" as="targetPoint" />
            <Array as="points">
              <mxPoint x="562.5" y="1496" />
            </Array>
          </mxGeometry>
        </mxCell>
        <mxCell id="M5AaKQTxuIL4Br_csM94-25" style="edgeStyle=orthogonalEdgeStyle;rounded=0;orthogonalLoop=1;jettySize=auto;html=1;entryX=0.475;entryY=0.051;entryDx=0;entryDy=0;entryPerimeter=0;exitX=0.5;exitY=1;exitDx=0;exitDy=0;" edge="1" parent="1" source="M5AaKQTxuIL4Br_csM94-22" target="M5AaKQTxuIL4Br_csM94-6">
          <mxGeometry relative="1" as="geometry">
            <Array as="points">
              <mxPoint x="536.5" y="1515" />
              <mxPoint x="313.5" y="1515" />
            </Array>
          </mxGeometry>
        </mxCell>
        <mxCell id="M5AaKQTxuIL4Br_csM94-26" value="&lt;font style=&quot;font-size: 10px;&quot;&gt;Não&lt;/font&gt;" style="edgeLabel;html=1;align=center;verticalAlign=middle;resizable=0;points=[];" connectable="0" vertex="1" parent="M5AaKQTxuIL4Br_csM94-25">
          <mxGeometry x="-0.5507" relative="1" as="geometry">
            <mxPoint x="-68" y="9" as="offset" />
          </mxGeometry>
        </mxCell>
        <mxCell id="M5AaKQTxuIL4Br_csM94-27" value="Usuário Cadastrado?" style="text;html=1;align=center;verticalAlign=middle;resizable=0;points=[];autosize=1;strokeColor=none;fillColor=none;fontSize=9;" vertex="1" parent="1">
          <mxGeometry x="175.5" y="1408" width="103" height="23" as="geometry" />
        </mxCell>
        <mxCell id="2TubfHMEokGBwp1bfRXk-28" value="&lt;font style=&quot;font-size: 10px;&quot;&gt;Página de Login&lt;/font&gt;" style="text;html=1;align=center;verticalAlign=middle;resizable=0;points=[];autosize=1;strokeColor=none;fillColor=none;" vertex="1" parent="1">
          <mxGeometry x="69" y="1405" width="90" height="26" as="geometry" />
        </mxCell>
        <mxCell id="M5AaKQTxuIL4Br_csM94-28" value="" style="edgeStyle=orthogonalEdgeStyle;rounded=0;orthogonalLoop=1;jettySize=auto;html=1;" edge="1" parent="1" source="M5AaKQTxuIL4Br_csM94-10" target="M5AaKQTxuIL4Br_csM94-34">
          <mxGeometry relative="1" as="geometry">
            <mxPoint x="676.6428571428571" y="1425.5" as="targetPoint" />
            <mxPoint x="519.5" y="1426" as="sourcePoint" />
          </mxGeometry>
        </mxCell>
        <mxCell id="M5AaKQTxuIL4Br_csM94-29" value="validaLogin()" style="edgeLabel;html=1;align=center;verticalAlign=middle;resizable=0;points=[];fontSize=10;" connectable="0" vertex="1" parent="M5AaKQTxuIL4Br_csM94-28">
          <mxGeometry x="-0.3983" y="2" relative="1" as="geometry">
            <mxPoint x="23" y="-7" as="offset" />
          </mxGeometry>
        </mxCell>
        <mxCell id="M5AaKQTxuIL4Br_csM94-30" style="edgeStyle=orthogonalEdgeStyle;rounded=0;orthogonalLoop=1;jettySize=auto;html=1;entryX=0;entryY=0.5;entryDx=0;entryDy=0;" edge="1" parent="1" source="M5AaKQTxuIL4Br_csM94-34" target="M5AaKQTxuIL4Br_csM94-1">
          <mxGeometry relative="1" as="geometry">
            <mxPoint x="767.9000000000001" y="1425.5" as="targetPoint" />
          </mxGeometry>
        </mxCell>
        <mxCell id="M5AaKQTxuIL4Br_csM94-31" value="Sim" style="edgeLabel;html=1;align=center;verticalAlign=middle;resizable=0;points=[];" connectable="0" vertex="1" parent="M5AaKQTxuIL4Br_csM94-30">
          <mxGeometry x="-0.2174" y="-1" relative="1" as="geometry">
            <mxPoint x="11" y="-9" as="offset" />
          </mxGeometry>
        </mxCell>
        <mxCell id="M5AaKQTxuIL4Br_csM94-32" style="edgeStyle=orthogonalEdgeStyle;rounded=0;orthogonalLoop=1;jettySize=auto;html=1;" edge="1" parent="1" source="M5AaKQTxuIL4Br_csM94-34">
          <mxGeometry relative="1" as="geometry">
            <mxPoint x="677" y="1350.3333333333335" as="targetPoint" />
          </mxGeometry>
        </mxCell>
        <mxCell id="M5AaKQTxuIL4Br_csM94-33" value="Não" style="edgeLabel;html=1;align=center;verticalAlign=middle;resizable=0;points=[];" connectable="0" vertex="1" parent="M5AaKQTxuIL4Br_csM94-32">
          <mxGeometry x="-0.5764" y="2" relative="1" as="geometry">
            <mxPoint x="-10" y="-4" as="offset" />
          </mxGeometry>
        </mxCell>
        <mxCell id="M5AaKQTxuIL4Br_csM94-34" value="" style="ellipse;" vertex="1" parent="1">
          <mxGeometry x="671.5" y="1420" width="11" height="11" as="geometry" />
        </mxCell>
        <mxCell id="M5AaKQTxuIL4Br_csM94-35" value="Login válido?" style="text;html=1;align=center;verticalAlign=middle;resizable=0;points=[];autosize=1;strokeColor=none;fillColor=none;fontSize=10;" vertex="1" parent="1">
          <mxGeometry x="638.5" y="1429" width="77" height="24" as="geometry" />
        </mxCell>
        <mxCell id="M5AaKQTxuIL4Br_csM94-36" value="Oferecer recuperação de senha" style="swimlane;fontStyle=4;align=center;verticalAlign=middle;childLayout=stackLayout;horizontal=1;startSize=28;horizontalStack=0;resizeParent=1;resizeParentMax=0;resizeLast=0;collapsible=0;marginBottom=0;html=1;rounded=1;absoluteArcSize=1;arcSize=50;whiteSpace=wrap;fontSize=10;" vertex="1" parent="1">
          <mxGeometry x="594" y="1301" width="157" height="49" as="geometry" />
        </mxCell>
        <mxCell id="M5AaKQTxuIL4Br_csM94-37" value="do/recuperarSenha()" style="fillColor=none;strokeColor=none;align=center;verticalAlign=middle;spacingLeft=5;whiteSpace=wrap;html=1;fontSize=10;" vertex="1" parent="M5AaKQTxuIL4Br_csM94-36">
          <mxGeometry y="28" width="157" height="21" as="geometry" />
        </mxCell>
        <mxCell id="M5AaKQTxuIL4Br_csM94-38" style="edgeStyle=orthogonalEdgeStyle;rounded=0;orthogonalLoop=1;jettySize=auto;html=1;entryX=0.414;entryY=-0.014;entryDx=0;entryDy=0;entryPerimeter=0;" edge="1" parent="1" source="M5AaKQTxuIL4Br_csM94-36" target="M5AaKQTxuIL4Br_csM94-10">
          <mxGeometry relative="1" as="geometry" />
        </mxCell>
      </root>
    </mxGraphModel>
  </diagram>
  <diagram id="-jMOw9hIvgGyASg1MFNC" name="Asset">
    <mxGraphModel grid="0" page="1" gridSize="10" guides="1" tooltips="1" connect="1" arrows="1" fold="1" pageScale="1" pageWidth="827" pageHeight="1169" math="0" shadow="0">
      <root>
        <mxCell id="0" />
        <mxCell id="1" parent="0" />
        <mxCell id="BZ0cO3S24L5n3KSmGgDm-3" value="" style="shape=image;verticalLabelPosition=bottom;labelBackgroundColor=default;verticalAlign=top;aspect=fixed;imageAspect=0;image=data:image/png,iVBORw0KGgoAAAANSUhEUgAAA5wAAAFUCAYAAABIljMhAAAAAXNSR0IArs4c6QAAAARnQU1BAACxjwv8YQUAAAAJcEhZcwAADsMAAA7DAcdvqGQAAJkVSURBVHhe7N0FfNRIGwbwp+5UKS1OCxSnxd3dOdztcJdD73A/3N3d3d3dqVCK1d1d9stkFyh63NHlo+X5/y7HNslms9lNdt7MzDsaeQo4KkBERERERESUxjRV/xIRERERERGlKQacREREREREpBYMOImIiIiIiEgtGHASERERERGRWjDgJCIiIiIiIrVgwElERERERERqwYCTiIiIiIiI1IIBJxEREREREakFA04iIiIiIiJSCwacREREREREpBYaeQo4KlSPP+uFy33VIyIiIiIiIsrI7Ao6qR6lDdZwEhERERERkVow4CQiIiIiIiK1YMBJREREREREasGAk4iIiIiIiNSCAScRERERERGpBQNOIiIiIiIiUgsGnERERERERKQWDDiJiIiIiIhILRhwEhERERERkVow4CQiIiIiIiK1YMBJREREREREasGAk4iIiIiIiNSCAScRERERERGpBQNOIiIiIiIiUgsGnERERERERKQWDDiJiIiIiIhILRhwEhERERERkVow4CQiIiIiIiK1YMBJREREREREasGAk4iIiIiIiNSCAScRERERERGpBQNOIiIiIiIiUgsGnERERERERKQWDDiJiIiIiIhILRhwEhERERERkVow4CQiIiIiIiK1YMBJREREREREasGAk4iIiIiIiNSCAScRERERERGpBQNOIiIiIiIiUgsGnERERERERKQWDDiJiIiIiIhILRhwEhERERERkVow4CQiIiIiIiK1YMBJREREREREasGAk4iIiIiIiNSCAScRERERERGpBQNOIiIiIiIiUgsGnERERERERKQWDDiJiIiIiIhILRhwEhERERERkVow4CQiIiIiIiK1YMBJREREREREasGAk4iIiIiIiNSCAScRERERERGpBQNOIiIiIiIiUgsGnERERERERKQWDDiJiIiIiIhILRhwEhERERERkVow4CQiIiIiIiK1YMBJREREREREasGAk4iIiIiIiNSCAScRERERERGpBQNOIiIiIiIiUgsGnERERERERKQWDDiJiIiIiIhILRhwEhERERERkVow4CQiIiIiIiK1YMBJREREREREasGAk4iIiIiIiNSCAScRERERERGpBQNOIiIiIiIiUgsGnERERERERKQWDDiJiIiIiIhILRhwEhERERERkVow4CRSl9hA3L51E3dfhCBJNeudqEjESP+kxIXjxRsvhMQmKuenheQEBLxxwyMPb8QmKlQz/w0FEqID4f7wKbyDY5Eiz1IgzM8D7v5RSEmKgueTFwiMSZbX/lA0vG/eRIB4c0RERET0y2PASaQmobcWok6PTujdbwacw1QzhWBnrJx+Gh7Sw6RIX1y79xCvw+KkMC9txIW4YdeyP7HkyD2Exn0uKPwHUsDqcm4PJv65HjdfhkFsQaFIwo19MzBx/1PEJQTj/tHreB72SRgtcceGylVx5IXqTyIiIiL6pTHgJFKLYNzccRY1e45B3dit2HDHTzVf4nUZA+a4yQ91MxdAx2YN4WRrAg15ThrQNUWFpr3xZ5f6yGqirZr5b2jALGdZ9PhzGBqUsoWOau47hrnQZFQHlM+qp5pBRERERPR5DDiJ1CDa7QJWX3dEu2bNUae+I+5uvQN/scDrIjqMXo3kpBUY1r4Hzt++g5kr1uPiy9c4N70uZl0OlZ8v85TWbbkRT6WHsUGuWDG6IipWFFM/HHoZq1znI4qURJxZ2Q4DR0xAu4Y9sPr8S3zSqlbabvsWyu0qxcP16AzM3nNRboJ7aXl1tO83EH8Na4WaFXti2/1A1XoqUa5Y3Ws2jsn7kAjPK1sxRN6vihiy/bZyHRXfG/PQraVyWYOms3E/XLWAiIiIiH4JDDiJ0lwsnt08DbdahVE1szEc2/ZATfc1cPWSFmWthDWTukBLuwemr12CUubh8HjtieAYfTjkzYxF3XZAWfcJPL+zCtcK6yB/khcWDfkNV3JMw4FTp7BzrDl+L90DR1JVmioFY3tXa8wwn49T0nqnVrfCjtHTsMU1WrVcJZsNKjydghl7A5R/x3jj+oFQ6CosEXy4F7q5DMIu8fxT+zGpiT/G/L0VqjWVkqLh+dgDATHJiAl+gmWbV8Pwz3XS+rtR9dY8TJNXSsSLC4vQe9Fj1B+3FSel7Y2regv9Os7B4wh5BSIiIiL6BWjkKeD41a5jL1zuqx4R0bdQRLhh+Yj1UDTogp5NCgLR3lg5vTVc8y/A7K6lYfRoJXRKh+BewhjkfXEWg1ZfRf2OvdGssD/mOjSE+W4P/F7IB5vaDYJf+zkYVuQaurR6jqEXp6KUqXiFMBwdUBjbq9/Blha28mvKvA+gQZ6r6O/cGw6qWe4HOqJ1zGREjq+jmqMUemY07Bblw5P93ZHp+QmM2HQHTTr3RQMHK2goUhAdHgjfoEhE3luH5kdz4Mb63/FgRV9s1uyJ1W21MbP+KtitmYuqbn+jy45i2L6rBbKJDQedQIeszVDzuheynlmJm8ml0G9EXWTWleLa4IdYNfNPmLXfgq5O8huhfykpKQmJiYmIjo5GTEwMAgIC8OrVK7x8+RLe3t7Q0tJCZGQk3rx5g/j4eNWziL6dpaUldHR0kCVLFmTNmhVGRkYwMzNDsWLFYGFhAUNDQ3merq50UtMPExcXh4iICPm89/HxeXfei2uApqYmQkND4eXlheTk/9Bvn355trbKskT27NlhZWUlP7a2tka1atXkc11fXx+ZMmWCtvZ/6aZD6ZFdQSfVo7TBgJMoTSUh4OYeDJx1ADmr1EHZHKbQSIrFveN7cEO7Fpb+3RcF3qz5QsCZBZcXVcS0uLnY0dwff0x3R9sJPVHVcwmKD7PFkdvdYa96lVeb6qBK6Ay8GVxSNQeIv/E3DCpuQs3mDvggnPvtL+xpX1z1h0rYNQx2GoVSxw/D0XkT9robonOfrsgW9QBHrrjjxd0rOOXmD8MId5wz6wb3vf0/G3AWvdEXY4J+x95RVWEib/gBpumWg+2lF0g5tB4utnUxYWApZJKWJEX5Yf2GcXhdeAKmVs8pr03fJigoCB4eHnj69Ck8PT1x//59OagUP/7m5uYwNjaWg00RLAimpqbQ02MfW/pvgoOD4efnJwcvItCJioqS/xXfsxw5cqB06dLIly+fXDgtUKAAC6FqIm4aubq6wt3dHc+fP8fFixflYFPcdMqVK5cc+AviX3EjQJz/4jpA9F/4+/vLvzXi+5WQkCCf8wqFAhoaGvINqOrVq8vnfM6cOVG0aFHVsyijYsBJ9DNLCMHxxbOw7JgPClXKByPVb39ciDvuP0tA+7Hz0dbkMAy/EHAG316NkcMfolxTa/gbF0Pfzk1g9mw5GnWLxpyrI1HUQGwtFqdHZsXMwrdxtkteeftCzOWpMK0ViAshC1FRWQ75ihhcmVAOMw0nonbKVWgV6I2ezXPg4Yxq6P+4DnrWr4umrSsh6cIwVN6eB9fW9flswFnu0V/oe6UWdi1tiMxis1GXMMCiDkpcfQPTE6txT78Shg+tCgupPBob6oKls/pDp/lODC4rr03/QNReiELm0aNH4ezsDAMDA+TNmxf29vZygVPUOok706KgKQoFRGlJ1KiLYFMEoCLgEd/Hu3fvyjVtonZNqFOnDipVqoTKlSvLf9P3CwwMxOnTp/Ho0SPcu3cPKSkpyJ8/v3zOi39FTbM498XNJqK0Jm50xMbGyuf+ixcv5JseYhK16G5ubnILiBYtWqBKlSpwdHRUPYsymrQOOLXMrWwmqh5/1uABfVSPiOifxIV4YP/Vw7D9bTz+6tkCNatVRdWqVVHFyQ7uVw/haUoeVCusg0vL7qD8oCbIHvsSx+95Il+xUihgbQxdIxOE3FqKmRc0ULPZbyhfIDO0jHTgemIBnC0qoaKDJWIfbUO/yd5oM3wASmV+X7OgY26GsEvjcUGrGuqXENll/XHhz/HYnVwEFe1FHWNqOrDMY4jD/abgobEpmrbrBAfzWFxfNx5XqyzEym4loe1zHXMWLMaZ8MIY3LYc/O4cxSONkmhSRBNXtt6FeZO6KJVdG7dP70RUvkoomQW4s2YkJp14jur9xqOY9l0cuvEEOZ1KIpeZPl6cmIc1563RqkNj5DRm9/F/snfvXowaNUr+VwSTvXr1Qs+ePdG8eXPUrVtXLnCKu86iZoPBJqmDaKopmtKJAEfc6ChevLgcWIqCZoUKFeTaj+PHj2PPnj1yACpufIhmuPTfrV69GhMnTsSBAwfkmqa+ffuia9euaNq0KWrWrImCBQsid+7c8s0nInUQLRbeNqEVNzmcnJzkc17UcIoEgOIcP3jwoHzei5Y3JiYmsLGxka8XlHEsXLpS9Sht8NtBlGYU8Ht4Cp6P9VHdMR/0Up1dOpnzoUm9YnD1eYQAUyd0qr0dvRo2wOYHkao1lHSNs6JoxTJwsDJB4fzZoSfFEVrGRTFw9lgkbK8Ghzx5UKTuVtRbtgmdHD5qMpmpMCbu3Ilc++ujoLRenjyl8HdCUbQu+fnaRIMcv6F25VDoaTVGoZz60hwz1P97M8qMriU9Nw8cOi+FddkWyOL8FDc+SVCkZGpfHSN6lMOFASWk5xTCzMhiaCsWaOqjYIPeGF4vHBNbF4OdtL3fxgWh2/TxKGPN5ndfExYWhrFjx6JPnz4oX748du/ejV27dqF9+/YoXLjwu2azRP8PovmmuNEhCqFDhw6VC52LFy/G48eP0bp1a2zcuFFujkf/jqg97tSpE0aPHi0H8suWLcPmzZvRpEkTuVZTNJMn+n8QgaS4sSn6dpYoUQIdO3bE+vXrMXLkSLkGvkuXLrh27ZpqbaLPY5NaIqKfgChkiuZLQ4YMgYuLC1asWIFatWqplhL93EQz2+nTp8sBZ6NGjTBv3jy55oO+TvSTFU1nxQ0lkfRn+/bt8vEjSg9Ekrrx48fL3T5+++03TJ48mQnFMgg2qSUiymBEsCmGshkzZoychVIUOsuUKaNaSvTzE0mqRDNbUdg8dOiQnNhKNMFlP8MvE33lRNPZESNGyMlYRLAusoISpRfivBctcUQN6Jo1a+SkVg4ODnJma0rf2KSWiCiDefjwodw8UfTNEj/aIvMnUXojCp2iKbionRd9OgcPHixnWKVPiURAohninDlzULJkSWzYsAGlSpVSLSVKP0Rzb9HMVjQDv3Pnjlzj6evrq1pKpMQaTiKi/yPRjLZ3795y0oXZs2fDzs5OtYQo/RE1nCLRiLh5ImrqRZM70e9LBKP0nmg+O3DgQPlYTZs2jcmWKF0TSYbeZlA/cuSIPFa0yGDL5rXpF2s4iYgykAkTJshjay5dulQe34woIxBDpfz11184duyY3L+LPiSaz4txD0WfbTG2KVFGIGrpRV9O0VT80qVLch9lIoEBJ9FPKRruz/0QG5uk+vsndHcBdM1s0eDv07h5YBwWbdmD4FjVsn8tFnc39EKxbLryHdHMOfJit5tqUQYmEizs378f69atk2s6iDIKcR43btwYLVu2xKJFi/DgwQPVEhLDHYlhJbZu3cq+2pShiOF6RPPaokWL4vfff5fH8CUSGHAS/XTi8XT/NCzZfxDBiapZP51wnNq3HesvumOk1Vl0XxsB2yIVYfZfhoZTxMP16FJMPauPvy/6Ij4hAQ/W9cDcwQ1x1OOnPQDfTQygfeLECbkZrRjfjCijEc1oxQDxYjgFkUhIJMT61Ylsvtu2bZP7bIvaII6hSxmNyE7dr18/uZm4qOkkFYVCXAAAPz/g1Svg2TPAxQVwdVU+FvNE31exTkqK6kkZB4dFIfpHSQh74QzvgBhEhoTgdXg4tPQNUaZmU+TMJC1OCMLdU1fwLFJVvWeRDSVKlYaDZQJc9zpDs5gB7t7xRp5CpeBUUAtPPrvu20hNgdhQDxxaPAIb3KzQqONQdK9rjddHnyPSJhnPnyejVM1SyKvtiR0n35+blg5lULmoHfS1guB8/BaQIwd8nj5FkLQsW5mGqGIv7WhCJJ4+vINHz5WDamoWq4M2hcWYjskIeXEX1x96ICJOLNGBVdYyqFg1J0Svq3ifu9h3UboYSoyz5EbJ0qWR1UQbiPXExQNX4CMWWNuhYilH5DQVY4MqEOXjjKsXHyFELLMrhRal8kJXSwPJsSF4cu8GnN+EiyXIWbE5KmZNwpMTZ/AsMTdqNXJEJh3pNcNfY9GijoiovA1TqmXM5mabNm2Sg83Dhw/L454SZUQiE6tIjHPy5El5TFkxhuevbMGCBVi1apXc3FAE4kQZkejDKfomi/6cZ8+eRebMnx8P/JcglRulwhsgEqjdvq0MLEVQGSuVAxNVN9V1pIKPgVQOzCSV1URrJycnoGBBIH9+4P+U6ZvDohD9cLFw278Cs8duwfNkPSQlR8L33lGceJ4FJUtZ4s22Rdh50RdxiEZ4oBfOnT2Ep3FZUL4wsLt6T6zXtYJmTDQsMlsg+tImKXh7v+7ZMwfhLK1boYg99KUYToiP8MKdswdxy1uKR/OUQoVCAVhaawzOm5pBEaWFXDlTcGn6OhyPSoJubDgC3a9h2yEX2DiVgb3ZU8yr3AeXknJDJ9kPAe4XMGtXKKrUL4HEh6exafMFeCfEIz7SFYeWHIZD3WbIFHETa/ZtwTPPOMRGRSHgzW0cWHMHBtXLwz7yNmZPXIFr0TrQj/aDy41z8Iy2RAHzUMya8RcevDZEUoofHl2+iMt+uihbNA/0vC5g8pwjCIiWAvToANy9dQzXNQqidm4jOJ89jJV770jvPg4x3jdxYEsYijcuh4JFCkjXVhvoaSmPgff1rdh2MVHa76YobCmC2IxFpI5fsmSJ3OyoYcOGcmr575eEIOfL2DZvJXZLP/DiRz7QuhyKZvmxSRuSwj1x8spNhOtYwsZUH/D0hL+pKYxVy38GMf7+iDMygt5/rV0Keoy/F67ESV9zFLEOwZNbV6GRuQAy/ddDnRiGh8cv4Vm4LmxtTaGVBpVeSUk+CA4xgZFhOB5v2ghnLTvksf4vTRC+j7a2tpzF8vjx41KZSueXzsQqzvv58+ejQYMGqFevnmpuGvK5hjHTl8nn/geTnwXKF7PFP389Y6TTNU76vNL/NVeRHA/nG4dxJSAT8mbNBNVPyz+K87yOZee84OCQHfppXvvshwt/zoB/wZrInkZD1MaFBCNWS1v67dTCg3OzcT7aAUWt//8JukSTenFzSfzOiX9Lly6tWvILCQ0FTp0CVq4Etm8HnJ0hRd6AaEZfowakH3+gcWOgfn2galWgWDHAxkb5vHPngNOngfv3lUGpyO/wgxMwpXXSIAacRP8oEf73L+PqS2O0Hj8KnZrVRukiuXDl7Fz42NRAmWy2KNKgKZrUr4FKlUrCxv8BPNyT4FjZDi4L/8brVjOxeFAdFMgtCpKmH67rJ9ZNRvHK5WAm/8ZrQNfYHPoxHvDNVBJDOjaChbYnTi/Zg6wDZmJMl7LIZqqLFKM8aN65JepVq4RKTtnxfNcNJDuVR6kcoTiz+CQs+ozHoF6NUK1idjwePBJJTX9H4vXdOB9WBKPG90Wj6hVRzsYMZvZ5pUKyBoyzOaJ+vWaoXb0KyjrZwcN5NXyz10KW+4uxLbomFk/sj/rSa5UonB+2NlkQ82Aquj8qjo2zR6NRzUqoaJOADaufIltVJyScaIWTZqMwYXgb1KoqLbP0xdKBZ2DXrCzc92+Gi0FjjB/fEXUqVkBeSxPY5LWBYarSQNiVOeg8bh3Kdl2K9uWkIDQDNvy/fv26nMFz0KBB8hAoadGszu3gXxi7+iLsyjVEkYK5kCtXEq4PmYrjuSuhrv2PGxMtIcgN6/afQrJNUTgmXEGzbg9QvmsJWKuW/7/FPDuOEducUaJMIZhp/5cvVyye7JmEc3HFUUnvIYZMX4tgM0dUL10QRqqbRv9aQiAurt0Hl5SscCqeHbrf/Z13w47OoxBeppV0jonCtwYMs2SDhbGOavmPZWlpKQ/9I/otiozMv6q9e/fiwoULGDdunHpqfJ4fROM+L9H2j3oolktcA8Rkgdd7RmFbsCPqlpK+W6pVPxWNuxuGYV1IGdQuaKqal34pkuJw9fByHA9zQF3HrPjWb3606yEM3uWLFg1LwVQzrQPOF9herwvCO4xHKSmu+F5xXrcwZ+cVGOfKixyZ9JGSnARD81ywMf6xgcmXiBtNou/2zZs3UaVKlV9rTF4RKE6ZAuzbB4gM1L16Ae3bKwPMSpWUtZeiZZNIGCYm8VjME4F5hQrKANTBQVkzKoJVUTOaPTuQLZvqBdSPWWqJ/k/yF8mLvFnNIH6DDKzzwTFHFnh4hMLMsTTsbROwt1c2ZMtZCC3/WgsP1XOEysXyqn7s9JHl43XHr/tg3S/JZKSPInlslHdpdS1RrJYjDINPYpB08cnp2BiLLzpDbg0ryWRmCEfHnJDjV+NMsNcIRFyKAfKVtkP81f4om1d67b/Ow75uXfkuq26m7HDKWwCad+ejQL7csC9SCwtuiCeH4tU5L5RwKglbfelPTR1Y2RVBwQKW8HF+gRqVmyCXaFIsvTvzkmXRwTgWQd5eeHTZBfsmN0Hh3NLrZMuFYo3/wtUn7gjUMEIxp2zwW9gSRaT9brfhNZzqOsIq9W9j8GX82WEmbHvtwODGdhAtdzMa0dTozJkz0m9LQRQuXDht+nD5HcGckbtRY8B8dGxfH/Xri6k3Ri+qD7/xfXDujWq9Hy3iNU7fkhtW/zREDeydN8FI/mpnkq/RR/7fZmDGwHZo0rYPdqxZg4ndGsHqp6oUCsPLi/cRJT/Wh02JsrC3+f/Veoiazc6dO8PPzw+3bt1Szf31iCGQRE1PdlFwVBNtnQKoJJ//b6eWGD++J5IX7caTUNVKn5WEILdbeBnzn08M+sGSowPwxNMPkfHK/n5Z81aFYxYj+fHPQLTcmTRpknyzycPjW0o6GcTGjcpaS9FXc84c4O+/gdq1gXz5RAdX1UpfIdbJmxcQrSBmzQLmz1c2yxXbXL1atVL68/8NOBMSgMhIqZAZrOw0e+WKchLVzgEByjbO8fGqlYn+v0RYoCH/P5XkN9jepgHsLPNjUKFD8PZ+hpNzBqKEarGgo6U6zVLeYMfH6/494IN1v0S8rramcjspvsfR1toGhar/Abs9T+HtehZjaznh7c9M6nXf00bu8t2w+24o/K6sQu5jo2FtZYbSS+7B+84qtK9iAvvmPlh+2xUvXW9gXFPxHKngIf33aTykELM/PBJREfCMjUGcwguvD+vg982PpPfnrZx8gxCdfBDNsuqjcIsxOBEZBNf9f8JjSWtktjDBsCP+8vaEkAensbnSXMzpXAgGGTDYFGJjY3Hv3j054BRjb6YF34ubcKrePLQoYwHdd7XFOrCoMBjbbpxAjZwKJMVF4tqqGsiR3RrWmXOgSsOpuOEbjxSFG5bnz4lxh05jqLW0zMoCZbpNwwOfWOnLFo+nm4fD3Eqab20F03aT8MQvGimJMVg9pSj6HH2hei3g1qxMsFt8T/WXxOMwynScifjYyWhXpQHOvkpG3NNDqFm+mLQtsQ9WyFe+ATbdDpb2QfUcQZGChNc3MKBNDVhlFq9rjWx58mLKSV8kpV5PkpIYhCsLR6CKuZW8nrnxH7gQFY+kxDi4nvwL9cpayvNts7THvufRiHxxAWOmLcb9jWNRJkc3nPBLwPOrK9C2nPL51tYWsDSaiBtxSVAkJ8Dn4hJUdLKXl+XMXxDTT3pKP1sJeHKoL8oUtkWW7PYoVrgM2vRegadhyVKZPQ5Bj9egiYXyeJnX6YGt97yl4PajHYd0LJ7vR/ssttJ6mVG+fjucd0+Q5gpJCPe6g3ENLOTXtTT7DYtOPZPOLXnheymJiLq4EKbyZ2ONzJZmKNN9Oh753sfi3M0ww+clundpjr+v38Tu5lUxbd8LXJyZGRWW3313HFN8jqKFWUcc909BnOdd/NWrISzFMZeuDR3WuSA6Ie0SV4h+ymKsPtGX81ckgk1x3osmxSKT54+kGeCDi3JtnXQdiI/Cra0tUMg+s/S9yYoy1f/CRa9Q3N4wCqM2PcHhvk4o+9cphErnkPOxMahdRnlu5MjeGQekcyhJ4YujPf/Ekgl/IoutLUpUXIEjO6diQteemF6nPvJK62bNlhWjDnlL60rnsud5jK7gBBtpvjjnTUvVwcQzHp/c8ElOiMGDPb+jTBHl6xUqNhAnX8VK21AgMeYO5hd0UH3Pi6Pd0EPwSvrou5mSDP8bG1G/YgFkltazs5uLK9HK/nEpibG4uqKydL1VniuW5gXQ5o9teBUlbSMpFtfmN4GZOI+s6uCPNXcRprogKZKj4XxyoXRdVe6ThclgnA6Kkd9X8MOD6FivuPxa1lamGLTrNRI/2iWFIg5ux+egiZm4DmVGo6l7EKHadoo4vkdHoWap98f3oHx85cXvKBTxcDu/4N0+iGuUjeVUXPF8jOXzp+PA0mloXboHdnsmY9sUO7TfehY7hozB9PU3Ea1Kch/mIV3bJ7TH5sf+iAt9jlUdxWdvDSuL8ug75Qz8EtQ3dIlowSPG4xTDI2V4cXGQImygf3/lJGo3K1cGjI3fF6RETCNiGxH3iIRBIua5elX5ODDww7hHlOPEc8U2Dh8Ghg8Hxo9XvkaU8nZievL/CTiDgpAiDvDcuYhu0QKv8+eHc6FCeCAdVDE5Fy6Ml/nyIaJRIyimTkWK+EDEnYJPfrSJfhw3Zw94+IXJhePYQA889vKDnVESToaUwPhzzvAeUhLxId54dPsRPFXP+YCvJw5+07qa0JaihmipQJn8QUlcKcz5Ok44TsQ1t0cYUtYAAc5PcN4nQFWb8QWKJAS9ccfDZ36Iy9UQV++64On6Fog7+xiPHr6CffHJuO0+F9XN9BHgfhx3HosnWSBXjWy4/9AdyhQ/CsSEvIb7yyBkcciJs1ePwTNSzE9C2DM3XE62QrbsBVGyT26cu34OQaq8SIkhL3Dh/EtEJCfCz90Zzh6hMCzTF7ceP8OZ8aXwyOUF3uau1LGwQ/Uitt/c/Ck9EgFLYmKi3H8zrXi+PgnrInb4YkO45DBcXjoC45+0wnUPH/h5PsIf1bywbO5GvIhUlpI2T/HDoIAA6fO/jAbxHjh42R2JL3di5LgYHHST5ge44EiBSDx6Fiav/4/sG+PWltHQMxiP7ZeOoaaNH84d9cPAOUfh4x8Av9eumF7bBme2n4H32+p5ISkSj697oHzTWfCQvtcB0j4dH18DFxdshov8fVNRJOPlxZ2YcygOg2+6y+tdX+uG1etv4MnlTZixNRh91rvCT5p/d0NOLOs1HLf1K2HGuIFw6jIdtzzXo4ZREO68fIYGq1zk5wcE3MJfOWZh+HZn6Tw7hAlL76LT/HPwlfb3wb6p0D21Fg8eXseesFbYe/uNtL4/3G+vRX7dczh66wVCb81Frjar8fttsa2XuNQqKxZM34zHgaqTQSUp4j7m9F+FXBvuSut5Y9eEbgi8dw3+YmHkZQzO1xX+g+/J+/TkZGmc6j8ex/0+uvka5Yp1q+JwSP5sAuB1/yDK+TvjyC1D9H15AGOy5sG6jfvxR/msqicApWpPh8GeNbjkK0qiSXhz5RBud2qDUnqvsWHeVIQ4DIert7S9Z8eQY2kDjDj4RlorbYgEObVr15ablP6KfH195RpeUbsp+rWqS3KSO26cOSO3olBOBzBl82nUndYHZTNF4tb66ZjxujHOPfJBgO8rrOhnikXTVwMNp2BW5yJovPw+bk6uisDz6zB9RzQGb1KeQ1eX22Bpv1G44ieCk0dY5WyNh57euHe1C+ykOXdPhCDLuFVwkdZ13TcSt6fNxJ3gMNzfdQ7FJuyQz/kA7+fY1j4nXPbswIvUl5GUGDzePw9TTtpiwckX8vd560htLBs9HfeDgnFhyijcGbZdnv/KeROqlHyEx6+kgvk7CsR538SijfdQa8xBePkF4NE+WxzbcV1eGisFXJti/8Bjb39pG754cuZPaASewZVnnvA78Sc67i6D8x7ie78YObReIEj6nRf87u3EnxMfoPE6V/m1b270wPD8o3Db+yU2rrmDXK034ZU0P8D1AHIcO4pnH/0Ix0r7NH/TVVQ781R6/itMsHiKjVKwKjKzu59dg+m74jBim5t8fC8vk45v/9G46vfhGZcQ4Se9ni9aqvYhIOAmhtvMwYQLWug7dCya9R+HXdI1qFUO1Z1GAxuUrmOIQ9cv402kdGFVJMDX+Sn0XxVGaSt/zKreE2vqnJO35XFvEjLdXogth50R91GwnJZE1to3b97Iv3sZlgggpXgFe/cqayH/+gvQF03DVKTjnXL5MhSzZiGyeXO8yptXjnXkuKdSJTkGeiXFPVHSMsyciZRr15QVb6mNGSPHTRCZf2fPVvb1TEd+bMAZE4Mk6QKIsWPh2b499kr/zpD+Hi4dtO5SMNlOWkVMXaVpiBTlT5MO+HbpA3zerBkUI0ci5cgRZfRP9P/g7YJDK1ZgnnTCL567G0k5BqJVOUfUrJCIs1tWSdeBuVi0ZDHuvYyGlyIC4XEJqieqGGf7ZN27r2I+s64ObHLmh/+Lm1i26Dx8VXPf0s9ZAS0VJzBf2sbcvxdi1e5rMAj3hr+/Miz8rJQk+D6+hEWzZ2Da39LzpOdOOReIDqOrobhDUWhFPsPGhXPk+bMPnEVUnDki38RLAWc3FPW9ivHitebOwaIVy3DijissSw7DIKPrmD9BzJ+Jv1afgG3d4iidJStq9l2ESq+2YPRU5evMHLcUaw+7Ijw5Hh43DmDe9HGYKW9vBuZ65MDQJsXf1c7qWOZDreLZviG5Rfr15MkTueCZSWSjS0NWBql+3D4W6Yvr96zRvEEd2OhqQ1PfFBUaNUR2Ky+8ClKG+82nNoOcK9fcCuUsIqAdFgGFliU0rR5i5zLp89p1HzYDp6J9lf/Yh0Q/GxqM7IVmFQ3wYMkizF+6GlfdYj9NJqRjipJtO6BD+/zw3rsJC6Tvyv570fikF2pKMt54vIFepZaokV/ZN6hAm0PY2scJIU9DYZG1Acrlyyz/yGWpOQydq/rg6vMPx4TTNcmKth3noV3WEOzfulL6Th6Em71YEg8f1yfIUrA46hTPLifxsSjSAiPmTkSZ0tUwvV8rFEx0k9afh9VbTuNlrJyuGk9uHUaePsvQRN6GCYq2bonaUbFw8ftwOJDgB8exr2hjDK4pMrbqIkfJaqjatKx8HsQ+uIzdBQZiXN3c8rq2ZXuhfw13XLr70W9fpqIYtHUUKpm8wWnpGC3ZegK+fglfvVmjX6QxOpd/g8sPvZEU54WzBz3RoVk56EY+R1hACho0qYjM4uSzqIAhM9vB99gDpOUoejVq1IC7u/LmwK8mKChI7reZUyT/UKOkRFdcPnECJ04cxvpZg9Cy/zwEtNiMdeJLGR2Iuw+iYfjCDZtWLMLcBYtx4uFLBMfexkOvVBFgYixePo2ATa4GKG1vJZ9DWWsNRvuKPrjhofxGVK9YHFapWtIUrlsEZQoqbxbq5i+EmomPERFlgbLDp6B93ZxwP74AcxevxMUH3rBQPuW9uDA4P1KgWPH6KGSjvC461OmGGkV8pKA2HJn0s+LN+R3S+bYI+y/qon3HP1E/b+orQiK8nG9B28QcdcvYy/3+jYq1wZiWyqbLRgWaYOXQJsgccFvaxgJsOnAT3vHibPPHicXb8NukIXASd+ssHNCjVXnktlZeS31dpECsfFs0KqLMJpzvtxUYWmIrbronwdogFK9ObcIi6dw7FFgKf2zoh8IfXdKDbx/AfZ3OaC932DRC6c5D8Zto8ZQQgxdPI2GbuwFK5pGusdLS7LUGoa10fG+++LALgp5pLnTsOAstsgRi9+YV0v4fgruI8L9IF/YVGqLycxdcfxWNlIQ4PHn2EIEl68I6+AkOWDXCmg6F5TVNc1dEm/o5EO7ngfhE9VXoNJPK8KK1U6CowcuIwqWylwgyL10CJk6UAhkRyahERiJJOh8xejRetW2L3RMmYPqFCxgmPaebKu5pL03dpGmoNG+qtGyntI0XUuCpkALMFPFc0RL0rRYt5BhKTiq0fn26agX6/mqhbtIXTbFgAWIHD8amtWvRV/ryDZJmT5cO+F5puik9dlVNt6XpkDTNTk7GEOnf/lJAunzbNgQMGYKUv/+GIp1F9ZQxFKxWETXKFYKtdWbYVW6B0f1qIWuW3OjcvwtalLWXCxN5itdFnyXLMLx9PVgbZke9ZStRW1luFFf3T9bt+27dD9utmtrXxR8tW6NwbnPoaTugycyJKK7KMWGYrx5mLmgLR2kbmW3zoGKb3pi+ejyaFJUK12LdGRPerQtkQ32xD/b6KFS9GQZ0rol8WaXnSc8t89siDC2bC1nLNUKHXi1QOI+NPL9q20VYMnkMWhfLDMPcVTFuaj0k7rmJ+MxZkL9UY/xWtzZs7Mtgyox5aOgotpUTpVt0w7iutWFtpANtuzqYPOFPVHFQvk6u8i0xa2Yd5NA1RummnfF723LIJfY9c27U7S1tw+F93zINHSNYmej/4DthP9ajR4/kprQOIiFAGrHK7AQX5xeIVv39lmgWeufYeJxzDYVPvD60jXVVLXs0oaOrjwjNKITHK292ZDP/TN+SHDUxe04flLVKxrV9S9Gre1d02fof++DF++PCqtno16UHVrqkSJ+/FcyMDT7NHilqOI+swYgu3TDvwmuYWWaGhZnRJ4GUQvrdiEkKgX52I2V/5bdSUhAek4QI/UzQVT1JQ8MYmsax8In68AglRgfgyPIu6NJ9AS55JMBM+l6ayV/HJMRLgbhBrB50tT/cwzivm5g7cTC69FiKl9rS99jSHMZyiuk4RAQno3DqxBjSMc6uHYGYyA9rLaKjfJBkqg2Tt82sdHSRRd9ArqGOCvODRlHzVLXVhjC204JPWOrqXUmUGzYOG4juPfvjRIAhMltZwNhA96vnjpa2BQoWKofgc7fxyu02DprVR5cS5kiJD0Oyjw4yGbw/kiYm1oh5Lu276u+0IJrWiULnNXH3/hcimtGL814k8VH3sDB6Bo3xx5w5mDNnLhYunYru2UwR+swX4tuTGBWK16HBSM5kIV0zlNfn7PnLonvrAaiq7JCvJJW9wmOSEaVv8v4c0jQGjGPgG638RlibGn7QrSKT9N3T1/m45jYMD9bOxxDpXO55Jlg+5y0yfXouS1EygmI1EW9giLenm5a2IRL1oxEQow+nPiMxuKmjdG76Yu+gXujeZQp2X3yD90XtZCSERUE3UtoHXeU+aGhqwcRUGZnFvDiLP0f0lc7Z1fDRzQwrCzMYyH0PIhEmXYuymr+/7WVkLGqglU2eo+OCoJvTGO8bQGeCsYMCoQoz1OvWBe0bFIep31kM7tMdvYeMwgn3D8+WqAg/6NhnkocXkxlnkn6RpaOWkoywmJSPjq8UABvFvju+byVEeuPgki7o2n0Rrr9JgoX0mUmH/uvMHNC85htsvOaKxLgX8L6phXoNCkArOhTJdgZSwP/2k9OFQRY9hEtnebIax32sWbOmFJOF45UYDiSjSZKu7cePA6JC7PffgQYNVAsk/v7AvHmIkmKXtRs3oq/092Bp9kzpWO+Xfr/EL6mIeVykSTwWI5bOkpbJcU9QENZs2oTgQVKktHChdCqpbgiJjPYiu2337oAUF+HgQeX8dODHlOvEgZo9G6+li+BANzeMkA7ocemCJsbv+6d7KuJ+yFlp/XHS+oNfvsQzKWiNHzhQuZDoR9KzgGP9JujQuTPatCoP6Tot07UuhGYt28lJMVo2bYyC+QqiZunSsDHOjEJt2qJAqtu5X173o59gQ2tUqd1YWq80MmtmQdGmDT9Io25VuK28jc6dW6F6mcIoWL02Kheyln60Pl7XDIXatpP3QcvQEk5Vmqie1xkdK+dWFtS1TZCvQi20Vs1vWSQr7EpWQEUnG3m5XvYqmLKpByyPhCBfuUrIlklVqDDMhZqq53SuWxG5lWl2RekelvZl371O587lkVXVsVAkKCpX++38zuigunP8lp6tI9pWtsdX6urSPWdnZ7k/m62trWrO98v520j8dmAiLn30e57kfQwbZ55CpK4FHAwjkRgaq+ovKRUmw/1hEp0Ca8Ov9SfTR8Ea0mfVazCWzZmPBd1L48LMS5BbXH8gHD4vvn41j/NzwW63EBT5bSjGTu2Hzu1aoXShLMqxWlNJigzAhUdPoVGuG0aIwK5LZzQunVM53msqItmSqU5WRLuEfRhoa2khs5kurKKCEKsqkaakBCHsVSgczD+sJ40JvI2H+7xQe8AIjBksFWQ7N0YRubpdF0Y5zBBpEo3YhNTBYgJe3zuKZ8k26DJ2FKb264xWzaojj4X4pTJC5uw6uOiTak9Dg3AtxgzGH2TGks5KcwfoBiQg+G0hLz4OL6Ii5d878yz2UJzzlR8rBeLN2TjksxZj5r4X6XIaczwzo+vw6fjjz17o3Kw2zG0y4cPGux/R0kbOwoVgmbIT22btQIGixWEnnc9ahlmg4xCPoMj3hd3AVw8QVtrqy820/wPxvRc3W0J/sZvGMTExcHFxkc95kbnzx9CGVf5G+POPqjg0tQsWXQqFlo4+dPRMkcepFtp2eH8d7ly/KvJZpLrqamsji6k2LKKDEKc6h5KTghD5Ogz5zf7F/ge9wuajQchStycWjRqNzu1bo1qxnJ/eZNLVQ45MKTCMCH83LGFCXCCS/aORO5MUlGUpipZt2qN7r7FYdHIWfrPxguuFqwh/92XXhoGNOeIsYxClai2UkiIFsQF3pUexeHZ5B15mKoHB08dhQt/OaF7PEdnNxJXHEjaVtfHM9/1VKDTEBQmJyps7ZsY5Efs4RA7WlV7j5SFN5LSyglXB0mgoHbte49fg4OI/UcHyJbacd/ng/LOwyov4O0GqLimSkEApwJCuk9LxtTHVgoV0jUp9fKPehCHfR8c3yvcWnhwNRL3Bf2DMwJ7o2rkRCv1j/i8jlGzQAs+X3sChc2twOlcTVMtjDGMzW2jfjYCPFOwoSdecx2GwSMgEbSlAVxfxnbewsJB/+zIc0Zdy+XJlUqCWLd83oxVJfqZNg7sULPZ5/hyjpGv9KSmO8VMu/Sqxzmlp/dFSMDtEeq77338jfsQIcZdVuYKh9AVo00aZRGjkSOlr+Vo5/yf3YwLO+fPxfO5c9AkPx0bpgP/bSnVxiEVsv0s62D2lDzdw61bEiHbORKRmYTgytCCsCjTCCvuCyJm2rUB/SaIfi+jHpSUFRmlF27QB2vYxxvDOzXDRSzUT9zEtb1vc6boaTUvkQvmq/liyeStexSUiOSoYp7fth1tEOeT+2tiMt/+Gdc6+uBSmhyzZ7aCfcB2K1jlRTCqcZFXkh/v203AX/ZaeHkTnLZ/pn2OTA40VD+ATIBUAExMQ8zgOWlIhLKeFLvzvbsDUEZveZVd+S5GchNgXUuCjyIpsUgCl4bMbfZrO/LSmTQqe8hTNjhyPtuDe25oFaX+zOaxHvJMVPN5sxcmHnnIinjfbh2LR9TqoWMACmaxyQPdaBF4npSAlORZh0nsztM0Ca1M9PFhSGh23iw1JBWCHkvC75IXzbn7yNqL8b2DOkPrYfCcQ9+I0kKtAdphqxOHCmpGYeUAUM7XgVKk3oibVxLIHYhshuLRqPe7b6KHUR+PiWZRvgoH3VmH4dpE+OA5u5/bi9OrTEEdQu0wNjAgcgx4bnsjrvjg2AzNdK6BGxQ+3kRwXg8hLSTAqVhQ2eiE4sXoRDuy9Ie8rkBuZayXhRUCqZpIyTdjYlUVmrXhM2J6MfMXt5RolI5P8sDTQxdY1R+Al3orfIQzvthd1GpT7tPnjdxDZau3s7OT+jL+aJKnwKM55zU8SuqmTLizqj8SloT5Y1WsnnmfOi7YNdHDq8Fa4hIrbNEl4c3EZhtTrgTMeusiaVwcHX7ySPigj5ClpDufn23D6ibf8nXq5fSRW3K6Dcg7/YmiLpESEJ0mBo2kuFLM2QvDzo1jQez6eqha/o2+BQmU1cfb6Vtx8EyyX+R5sm4MDbtVRPE8YdjauhHZL7kFDywQ58mRDUKIUCGYviPf3ynSQp0h1pHiFYtvJx4iRdjji0lz0XineowLxsdG4HqeNosVywTDGC7uXz8b6cyLSs0ar4aOxtfNQnBUFU7/bmLLsOly8lDeZbJ0Kwvz2Iqy/6i3/fXdhA0yLGYcSWVwwtUtfjFv3EPEmWVGsWBbEvnqIEkXsU9WGSgFrlfaoazUb806JO4HhODF7GLZKZWDoGMOupBmeuG/DWWcf+fh6bB+NlXdqo6yqe8BbKUmxCI3Qg3HWLMicSQ/3FhRD913KZUaZrGHokgKf0PhPKm/0nNpgSZU56Nh5G0rXrwQr6TzXciiO/tiA8tOULQyCnpzEmrM+MC1QEPqq+8XqIG4OinE54zNiEtDp0+XugujSRRkIvjVjBlwWL0av0FDslD7zf9s1QXye4jbINinu6RMRgcC1a5EgajXfMjICRo1S/jt5smrmz03tV76UbdvgPXUq/pIusiff3s39DlekSfTxjDpwAArRVlpkhSJSKyMU7z4N4+YNVg0D8vMTzQ3FxV005RIFnf/ODI3mu0tBQCLuz6ibprUdvypPT085Q2BaK9N/H3YPq4yFjRzlpouOjt0Qe8Qb17uL5ESGKNVjPY50fINOVUqjZKUmOBHdELOmtEUOA31YSgWOzO9+K7VhkjUXslgaQaPMHzg3UwODaiq32eZwWRzu21Aq+OmhWu/xaGy5HK0qScv2GOL0fEcUtDKApo4hsmaxgYWhjhRwVkKHvs6Y9nt7HIurgKnjrXFmSiOUlLbVbkoo/tg/FaU0vBEa/r4Ps46VA3oMq4WUaz1QWbyPhlfQ//4BtLd4DR//1GGnJrKVb49evZ2wuVUF5XvuaYSzHoNQs0w3LB1VG9dmNpZfq+2K/Nh4ajpKi7JcnmIY5fQAoyqVwam4Bug8tgZ2dKokP79b7HJ47uoP2wsvEJqvLpYsqIAjUpBZoFhx1G4/GZadD2Dq5ImYnuyO7tXLwalsFWwzGIJ1/esgxjMQUfm7IOrVYTzuKo5XDQzyzo7F0/vC3vzjOns7dLm6Dw1XtpPWK4cxex+j9rB+KG5pCE0NJ/wV4YaOVzvK+/TbWD1MPDwJ1Yw+bAVhVnkkTiy8h17ifZdpiQOx5TBtbDUk+vkjJcUa5WrWw9bJAzD/9GsY5rZHFlNVLauJOaqVrIb2g6qhjJ2ZXAjQMrFBj4lzUDPTaTQqL22v3ng4HHqFqbXSMtxUSpHKAaIP869E3GSKk8oqYjxStTKwQtEimT9pIVL294Oob7EHS7e4IH/b6VhVPxrDGlWUvl+l0HnBDVSdtwi17A1QtOpYOB4civrN90NRvhdW/FEJ56c0lM+hrhsKYt2xyShppoNM2fMgi4V0wVA1z9c3y4IsObJAT3UPTQSGWfLZwyRnaSyYVhOPl3dHCSdHtBy6DY0P7Uah3Ar4Rqbuk6wLh/rjsKl/VqzsWxNO0utNvlgGyzYPQ2GTnGizeQEKSfsln+NVusAtU2H0be/4Yf9vy0KYNlO65p2bjAolHdFwYg4sWdgeOSwsUa7PLMx7dRBlSzihVP1ucHUYiVnNiyPQOxyJxQfC61hpDK8tvvdLkLtMUzSonE/aIw1YFWyN+Zt6wX9OQ/m1e6wfjmvBw+CUpQj6SMcm8lQXVBT75FgPp+odwrAKH7ag0DNxwNA/Z8NobTNpnarYm3cAlhd3gqWBNnJV7IMVIyrg5IQG8vHtsbkw1h2ZJB1f1ZNVrPI3QYeBZbCpvfi8pPUUW+Ah7VOWyy/hYytdR0r6YWuP+lj9IBlmWQoi19uWRjBH1TZ9UdJpAOo7vT2P7dHj7g0cjRkkb6tWx30o0HU2fq9vL71f9RE3WkTSsBBR65eRiKFeRN/NAQOA3Kq+U1LZS7FyJV7Pm4dx0vtOixRp56SpjzRFbtigTBYkRvgQRAZbKbCVM9iK/qM/OY08BRw/vjHygRcu91WP/oPnz5FQuTJmBwfjrzTOTtVWmlZnzw4D6YPVSt1mmugXlpycLI959ezZMzmwEYUcMzMz2Nvbo1ChQnLCih97h50+JoZD6du3LwaJvhlpQPyIi8y3pA6x8L1wB6/jLVGydQ1k1ohD2Nu+NL8IQ0PDNE1w1bBhQ2TNmlUqp6Xf8eT+LR8fH/Tp0wetWrVCp06dVHPTlmimnCFrkOiHEP1507LVTWqiSfngwYPl5vRTpkxRzc0AxG+4GHHj7FlIBS3lvCdPkFilCsZHRmLmd93s/1R3DQ0szZEDulLgqVm9umquRIzXKQLeRYsA3bS7dWBX0En1KG2oL+BMSUGKVKi6L/2oNJIifnXcz9ysp4d2LVtCSwyKKp0sRL8yMc7bpk2bcP78ebmQKJJTiPHeREAiEnWIQmPr1q3lAt+P60dEHxPNaSdPnozuqZvHfIfDhw9j+/bt31mTTV9iba2JR9cdsOTSJMQ9vYU5YiDvX4Tod9WjRw+ULl1aNef7iRstoknt7t27VXPSl4iICHmYB9FM8FuJZCkdOnTA0KFD0VL081IDMb7p1q1b5ZuMRP/G20BQXeUC0dLqjz/+kJvVzps3TzX35yFu2IqWF2Kc4G/m7Q1IgaX0xoA+ov5RIm74SL/rV7ZtgxjKPK3rc8XtgD3SPjZu1w5ac+cCbxPU7dmjHJJFOv9RWJmBOC2kn4DzwQMopAvrbx4ecuYldagoXfD358sHiwULoCU6zxJlAKJAc/PmTbnZZWHp4vEtY7Y9ffoUw4YNk5/bv39/uYBoLl2MxHNFAUQU8A4ePIjjx4/LQWe/fv1gJNr+03dbuHAhcuTIgd9++0015+tE06ItW7agnrgrmQbEd0XUaosfTFKTzAVRuagtwgID8fjxpymTMipRACtfvnyaZlT+888/4ebmlm4DTnEt3SYVKMWNOzGo/bcQNwPbtm2Lv/76C40bN1bNTVt3797FvXv35FYuRP+GKAuIGyHiBrU6iIBOBJovX77EAqm8rq7X+a+io6Nx9uxZ+ThUkYJI0df8H23fDqnQJbIAvg/8RPbt9u1R4/VrnFfOSXPVpLjnYKFCMFq0CFo1aihnij7x4kZW795A587KeWkg3QScSbNnw0OaigQHp9nA0R8TycWXaGqi5YQJys6zIl0wUTonmp+Iu43ibrVofiWaYomA5kvE+G69pQuN+PfQoUMwNjb+bNMY0dxKFPImTpwIMT5m06biHhx9L/FDJYLNSpUqYcyYMfK/XyOaLu3cuVMekzAtiAKm6LNLpA6iCX5aNsNfunQpdu3ahYsXL6rmpC/ixo64Jp84cQIDBgxAu3btvnp9FkTAKVo0TJo0CVWrVlXNTVu8DtD3+JYb2/+V6MO8ePFi+ca4uEEryig/E3HeiGuSuCEkAs5evXqhTJkyqqVfMHiwOLGV/SdVEqVY5N78+agYGalK3pb2RG77NVL5rv6MGdAYPlxcoJWZckU/UtHSc9Ys5bw0kNYBZ9r9iqQmFWy1793DMTUGm4JIrH5duvgrxB0G6bWIMgLRHLZjx47Ili0bpk+fLtdWTps2Te6XKWorUxcqxOPTp0/j9evXWLJkidwk5kv9MPT09NC+fXs5OBJ3G8WPAH0/McaYSMBw7NgxNGjQQK5BFkMgRKYerFnlzRuRlTRtic9bFBY4cVLHlNZ9vsX20nNtvNj/8ePHyzf4Ro0aJZ/zixYtkms+v9aXWjTB/TfNcP8tXgc4fc/0KxPnpWhxJDJor1u3Tg46RdP/W7duybWfn9zIEee5iDtKlVLNkEREQEcKqE+oMdgURAaBa8nJ0JBeS7oIKWeKfptFiwJeXu/n/YTUE3CKccikN31T9ae6iEv7S+niHyYGk/3FxvWijC137txyoCmanvj7+2PChAlykxcRKN6/f1++CAqif+a5c+dQrVo1+Tn/RBSWRNAp+hSJmjlKG+PGjZOb44ja6b1796Jy5cpy7cfVq1cREBCgWouIMgLRD1vUcgqi1mbIkCFo06aNXIsjmgu/vT4TUfogbtZ37dpVrn0VrcFESwxx81j8tovf8eDUlVpSmUyuVUzdX1LEPYGBuKX6U13EqFXPpAA5Tty8fhv3iBsGUrAsj/35Eye1U0+T2nv35IRB5W/dUvvBry4d+BU5ciDv7t3QTFUFLmoXRH82ovRKDJL8+++/f1ArJmopixcvjrp168p9iMSdSdEMRDTXatGixTfdQRd366pXry73PxLPpe8nMkSKPrSitlkQn4to4iYKpnXq1EGjRo3kJrQiw2nJkiXTtEktUXqyfPlyrF+/HntEoot0TASa4rorbgiKa6q4mSeuv+Jmkzjn69evL2ekFtds0aRWJF8STWpF7QnRr+Rtk9rbt2/L58DPmj9CxA2iG5O4qS9+v9+Wp0SGf9GXXfTDFuUvKzGsk8g2vWwZpAXyOrh+HQkif4b03EfKOWpTV9qvtdI+Zdu8GXBSNXu9cEE5HqdIyuToqJz3ndJHH07VgS8pHXjl0NXqU0GalllZodiBA9CoWFGeJ7I1iqyNmzZtkv8mSo9E8yxxgRZ32z5ugiaSeYiLoJjEmHaiaVetWrVUS/9Zly5dcOrUKRQpUkQ1h76H+HxEs2YPMS5XKqIQKiYxDIToMysyVYrgkwEn/apEwDl27FiUKFFCNSd9EtdnEXSKm0ipm9yJQqrIYisSLYmaT1FIFS1KGHDSr+ptwClyR+TPn/+nbsIrui55eXl9UOYS57Q4x8U5LZreDq9WDTnGjwe2bYNUiFKuJAV8YQMHopJ0TXj6cRPcNCZ6ga/KlQv5pHKERtmyypmXLwMTJwIzZwJplFU8fQScN24gSQo4S9y7B3Xn8xMh5rLMmVFECjg1K4jwU1mDI2qHROZGovRMpBIXY7h9zujRo+W76aITvqhdE7We30oUgsQ4nSKjLX0/cVNAJB0QiUQ+9jbzncjOKTIPizulDDjpVyUCzvnz58tN1dKz8PBw+b24urqq5rwnhqQS4w527txZ7ovPGk76lb0NOA8fPiyfE6LW/2e1efPmz/6OCyLDtDiHC0m/93q9eomVgeLFlQsvXkTkoEGo8Pgxnqg54BQtO1flzg37HTug8bZl56VLkHZOmTQodd/S75A+As4nTwDpw6h6/TqkQ6BWdcSBz5cPObdvh0Y6v2NKlJoIYERAKJJTCOIum0gMIWonRYIgUcsp0owPHDhQbk4rLuRfShiUmmgB4OTkJCcmEjWj9P3ETQHRjE7UeAhvPyvRD1cEmiKxiCCaR7NJLf3KRJAmhhW5LO7Ip2NnzpxB7dq1VX8pz3lxTe7WrZucZVyMYfoWA076lf3sWWrfEom/RJNZMW65kPp3XFyz3uXJcHMDOnQA/v5biv6qK+fduQNF374oKf3738b2+HaNNDWxXirDWa1bBxQrppwpcnKIsTgXLVImEEoD6SPgFB1qu3fHwGPHsEQ1Sx1E6+oO0oFfXbMm9EVb6rx5lQvoX0lJjkGAlyd0MueFpaEUsCSGwSNIG/a233dRiAl4hqf+ybDNZY/smXRVc4UUxERGISlFFyam+kgKfQnnCDMUzmWO721okRQThMCoBJiZZ0ac1xMkZHFCFkPVwnQkKipKbn4phjkRxIVODLchAsTUzWBFkhqRydbd3V2+kIsBnP+JSGojak6PHj0q9zGi7yeO55w5c+QfJzH+qWguKGqRReEzNRFwimXiLqroR0v0q1m1apU8PFN6DjhFc1rRtO78+fNybY0YFkVcn2fMmPHZa7AIOMW1QPSZ/6dhk4gyGhFwLpPK6KK56s8acIob8ZMnT8bs2bPl81sMXyZ+q0VLBZGJ/oOxOUUlgBh3W4x5+fvvynki10bPnuhy6hTU2ZlPU5q6SIHw6oYNoSUF8VLhUIyJpGzeu2sXpMheOS8NpI+AU3rzKYMG4cDatWgRH6+amfbEV1akPBkpssVNmwakuqNI3y429AGWjx+OzD0OoJOjHjxPT8VvNxvg9p/lVGv8F7E4N6ES+pzJiRo9xmBO5zIwVkWTSTHeOLJ7G2KsGqNlwwKIu7cek546YkonJ3xXbJgUg7sXtuC4rxG6NG2EgC2dcShyOoaOKgwz1SrphSiQieBSDJFSsWJFOfj80p1xkUFtxIgRcoY1MR7n14gaUdGvSBSQRC0pfT/Rb7Ns2bLyD5IoTL4dGuVziRFEwCnG9xLriBTsRL8a0S9dFOiOHz+umpP+HDx4UM4aLm7Yib7zItGIqBkR/bU/R1x3xfqiZcm3ZBMnykhEAp47d+4gZ86cmDVr1k8ZcD558kRuJebt7S23XBBJv5o1a/b5BEeif2ebNqLtPKSClHKeyLXRvz82btqE7lKArS6m0jRFmgZK5Ti5CW2mTEBcnDRTmisq++bPB0xM5HW/V/oIOCUp27cjbNgwOPr5wVM1L63llqL8nWZmKDV9OjR79hQDUamW0L/xYcCZjKPDy6Gp+QYkfU/A+eYomrWYiRLN6+LFUw0MmT8SjtbKO0TRfvcwY/Yw6NZcgdFSwJm67vN7RLw4h3ULTyC7FOA2L2YOrejnWNJzKKwm7UTbfOmnmlMkoVi7dq1cyymaXYp+ml8TGxsr1xqsWbNGHrBYBDuiD1Fq4oL/4MEDebw40VxE3MVjwqC0IfrPiv6wokZTBJ4iM+2XiCx49vb2KFasGPKyRQb9gkTAKa5PYtza9EhkvxfZaUuVKiVfm8W//9QnTSQNEjeZcuXKJU9EvxJR/hCZX8Xv488YcIocDCJztmgpJvZRBJsi8ddXSXEHRKbte/dUM6T3KZXbAkaPRvGgICgb5aY9OynuOWBpicJ//w3NLl1Eu195DFC5trWcVGYX3aTEvDSQbgJOMR5MUq1amPfoEUaJ6l41EI3VlktfDt3ly6HxNjVwuvEKu5r2x9KwKOlxdtRuNxwD+5SQ714oUh5jYfUB2C+vVxaD5g1F05K20E6Kwc39e3H6mRSUhJ6Xfrg9pO+VJv5Ydx4N5cqSGNzbOArjNj9CTKK01UJlMXzibJSQYo/wG4vR7ERBHJhYS34N+N3BsPGnUW3UYNS2eKYKONcg96GFGCsFL1d1CqB9rSmYtbohtG4vwfh5u+EmctfomsCpyxRM7yhqI6NwfWlfuOfvhPtTpyGqfH0M+2M0CloCrmtKoNrJfjg+xhxrVuxE2V4L0KFUVmimBGLT4HoYv98Dmub1MGbhdDTT3IHedypiXtMEbDpyC5WaDUDNPPJeIsLnNg4dPAb7hqNQPqc+XHc0Ru/lyuFuitftgGH9eyG38qDh8Z55mHHIEtPXdkNuVRT7bEd/DDvfFGtX1sGHIdjPS1z8RL9N0TRT1HB+C1EI2rFjhzxOp62trZwR1dHRUb5oin4JFy9elIfsEEGOqA0VhaRffbDntCCaColx98RnJZKDfAszMzO5+e1vokkO0S9GDKgubryIWsL0SNTOinNeZNv81uQnomWDaFIr+nGKprhEvxJRphHNzQWRMOxbck38SCIgFuUkUd4Sv+Wi7+Y/Ekl6WrQATp4E3uaP8fKConZtjJOuDzPUlDhIpHmcX6kStFeuhEahQsqZok9py5bKhEGqfBFpIa0DToiA82vTd1mxQpEghQIlpUl6qTSdpK+DwtXUVBE/dqxCkZysesF0IuyBYka9MopWC24owsLCFAGuVxRjOwxSTN/prIjxP6noYGaiKLXwqrzs0f7BivKF+ypOBUYrFPERiuPzuyl0CjdTLDj9RBEkLT8xRkNRtMJGhYciVvFg22BFqVFzFR6+QYqwQC/F3lnDFS2G7FC8jlEoAo8OUWi12aYIUu2C4tUpRc1SXRQrHoYrYkLuK+YOqKHYdD9ckRDtrdjdP69C68/TiojIeIX/462KLoM6K7bceKYIkV7Py3WHomPhaooJF95IGwlVHBnmoDA0bqc44B6miIyOUSTJH4WLYmE2M0XX3T6K5JBniun9+isGLb+iCE8Uy1IUwR4XFSP6VVSM3XVXEZ6QpPDb00Vh03ufwsfrtmJMu76KKTufKqRdltd9cWK5YljbBYqn4RGKCzPrKrJkGqG4IO1H2Ot7isl96ik6zdytCJJWTklOVGycWlTRZa+bIvW3IezVPsWECk0VFzxVMzIwKfhRBAQEKIYOHarIkyePQrp4KoyMjBQGBgaKMmXKKNauXSt/p6SLq+oZ9P9QqFAhxfbt21V/Ef1aOnbsqGjZsqXqr1+DFHAqqlevrti8ebNqDtGvIzo6WtG1a1e5bJJhJCUpFKVKKRQDB6pmSFJSFIo5cxTxGhoKh49ilrSYdKXJy9xckTBlyodxz+TJCkXFilJBP1A1I218Lib8nklTehPq07s3ksqXx3Q9PWRSzUoLos5npYYGHOzsoCuScnyh38TPSYEQ1xs4krcdJnd3hKmpKTI7VMS0LQsxprUDnHcNw/ZGa3FqUAV5WdFmIzA0710s2eYKZT1xFjSo1hrNKhaGpbS8du9NKB60AE89ohH6NAj54vQRk6gNY6ts+G3kHOyZ3wY5DeQnfgMN6BgawkBPC9AzholxkrSvvihlWQVVC+WGVni4tO1cyF0lFMHewYhTPUvrz2FomtcUxoYG0NJMQdydC5is9RvaVbGFpnkW1HbQw5VTp+ERFC2trQE9Q2Po6WlL/xpCX0frXe2/vlV2VMgfCT+Xu4iIVkCREovH968iuFYl5Aq6gkm7smH69QmoKr1v05xO6Nm1DgLczuOeXxgUiVfwdJ0myuWQXlO5OZmuiR0ylY7Ei8Bw1ZyMS9RYio7uopbTxcVFHutOjNMpHt+8eVNuBia+U1/qZ5RuKBIRFewPz1ev8CogAmH+b+AXEI0k1eLUkhMiEejrj8i4VEtTEhEW7IdXgWFITBHXcWm9+EiEBwQjQTrJUuLC8CYwSnW+fUSRhLAgbwTHfu7VUhGJuMT+vfJCQHDsB9sSNdDibirRr0gqx3y12XlGJPp3W1pafjKeMtGvQiTlSfdlj9RELa3oyrd1K/D8uXKeKMwOHIiUwoUxU4p70rLhsOhJulF6zWz29tDp2vV93BMVBWzaBDRtClhZKef9pNT+6RusWYOKuXNjonSgrNOgXbFICzRCmrqLTHAiBXC66wcVh1du96FlYYjM2h83K4iA38tk2JbID3PVHNHctnBLE1y6cQvB8t8iEMwCo0+CSEsUalkDVp6LUKLtWGw9eBAHz16Gc2Csavl/YYg8tVuhXHUr3D23EkNrt8OA0ROx/45qsUrdXKkKD4n+OLRhPeLKZ0fsdWkfDp7HC01d6Lo8wLWXYaqVvkDPEoUrFcPTV8/gERoFRfAp7Fvnh1plCyI5zA+JxjmQ1/Z9M1Cb7GVh4RWPB6+kdX094aOrjewWH7a719K2BEyj4OIX9PkAIoMSTb0yZcokd3hPnZ4/Q4h5jZ1/dEbzZp0wcM05HJjUGA06LMOTiI+CwJQEvLiwHB3aDMbBJ4FQFvUUiPO5h0WT+qHzihMIiBad+1Pg/2AnlvQag0eBQLTbUYzafBuisfvHkpO8sWhEXYw5+1o15wsinmLN4EFoV78xeo09/0F/DtF8JzhYeTYT/WpEki1xY+xXIproifNedH0g+tWIGy0io36GO+/btwdy5ABWrhRDBijn6epCf/161JLmj5XO+7QIAcU2xkpTq6xZlc1m396wk4J4iKbK0mvKTWp/cuq/3VCoEIzmzEEXKeIfLUXkuaQP4L+GnaKH1DBpGpwzJ5Lnzk3Ttso/mrGOjnTwP38kzD7XL8TKVL7D8TXWjt0xa85yTG6YBe43r2LjwlEYu+Yg3oT/Q23MlyTH4vmFzVi+cBnOXQtE9gkLsWP7WvSoplr+GfHeD3DkRjb8liMR9+7dk6enUmm7YC43HLzlplrrS3SQrUBZFPdyx+1nwXhzciluFGmOcvaqfowm2tD95JCZwcToH/oiJqcgJTFJbpNAGUftPtOwe2Qz1O/cAwZvDuHMHd8PajmTYwJw69wjJBashBJ5LFQXOwUSNPRQqVlPbB3UEtlMPk1ZZVK8A7YPq67s6/xfmZfGmH178Ff7T8fDEgkToqNFbT/Rr+ftGHe/EtH6RPQPixPZJIl+MSLgFFOGCzhF8iORKVaMgXnlimqmpFQpGM+ejd8LFMAIKe7J+h2VbVI4iz+kqY+9PRQLFgCpx+++fh3YsAEYMQLIk0c18+f1Y+q3a9eGxfTp6OHkhOXShfffdpkX9YCVpA9tjvTcPkWKwFQ66Lrt2ikXpju6MDbXg5+3J4LF3YkPGMHSVhMuD9wQqZoj/Tzj5fkYOObN+48Bp2CQpzpGjx2PyVOmYfqgVtAJPIV7vsq6GsX1AITIj4DYyGAkJfxD7WdCJJ4+ioWJ0xD8OXUSJrUvBd3YF3h1UbX8Ewl4/eASHhcuj7/GT5QHuVZOUzBx4G94sesArvxDxY6uTUHUKhuB3bcP4OSs8yj7Wx3kMgAMjS2h7eOF50Hvj1lIgDMirDWQJ7MeNCytYZWYjMAI1V0mleTkCCDOGPa2mb97jE/6OZk51EFzJyPcv/IIwQmqmZLokJe46xmIctUqIJd0zgk3N7ZG98FTsWzZWgydtQmuoZ+eA1GPtqPTggtQ1kUk4s2NLRjdu6U8rEG7fU/kuak9P9BZXiamCUu3w/v9yftZojmhj4/IwEX06wkJCZHKRj9/4Sgt6erqypl5RfIgkTCJ6FcimtO6urrCwOCb+3elH1J8I2eHXbHifdNaoUEDZJbinj7Fi2OZlhZqqmZ/KxH31JDinnnSc3uVKAHT+fOhnTrR4LNnytrOatWAVq1UM39uPybgFDV2deog07p1qC4dmA06OtglzRODPXzcqPRjIvfTEumA75KmZvXqwWLtWmg1bqxcmC5pwa7Mb6jpdhSzDqua5UW8wapJkzFx8wPkbTwKtXb0RbudrvIi7yvLseBKHvRpkl/++8tCcHX6UIyadxxRCSnQ0EhGYmg4ModbIKe5Ccxt7KHwmo6bopIx1hNHNuzDc1d/5VO/REsb5gZh8H31FEHhynGFrq1ug/V34xDpFo4PQztJiAe2HL6BQk5FkVU/1SC5UqiXvWRN1Ag8hrVXglTzvkDbEmVqVkbAxjn406UOmlXNA7Elbbvy6F/7Gf6qtwJykT/iNbbvOAID+0IomtkUGkYVUbB5HG75fPiekmJeIu6eAfJmTm8jcdK30jPJjgo1CiD28RW8DlSN+6tIRpDrdUTHZEX9CkVhKF3pHq0ugb63a2HszJmYOXMIqrvuRuuFZ5Trp5IQ6IxDt18jHsnwe3wY01YdQub6gzBNel4z5x5YeE21IqJwdUFLNOhrhk5im2P6IOnRNkzfeBxhXxl+WKRd9/Pzg5eXl2oO0a/hxIkTcmbn8uXLq+b8GkQXBzH+phj43l+MlUf0CxFDIYm+22IczgxHBNF9+yr7UooxMENU1Toi7mnYEKZr1qBO06bYKsU9m6TpW658ZaVppRTziOc0atYMZqtWQat+feVCQVxDZs8W46wph2f5Ccc1/ZwfE3AK0oFD0aLQ37oV1gcPoqGjIy5KH9RzfX2slg6sSPXbXDX1kabFGhpwkZbflpZ3z5cPttLz9A8cgEaZMqJ9irRG+qWdpSpmn9uI4uNqyMNWmGSrjjNh+dCtRWlYOXTGibB9yP97aXlZgZFv0G/fPLQSY39Ix0RLRxd6ulrvG+NqKpPvaGlaoOLYoShxfgbsLU1hYpoZzebfQeXBE1Eiixa0SgyA17aa6FtKej3rdrhtUQcdqzrCSFNsSQs6egbQlh+boWG3kTCYVQdFKs+DadM+sEs6iTJ5LOT96au/BWvGlkRMpC+iYjWgrWsIfW3l3gR638Wb1xao4lQIejofNiHQtCmJFi0y4cCBC4i3zIM6dsWxr21pDFl1EXEKPRjpaavekyasHaujuZ4Rkjp1R9UcqlsS2pnRctY57B20GOXlY1YTl5LaYe7obshqrCkdGkOUKtoZ3nsewidV29lQ6UJ3wrQ7CuT+cV91+sG0jVGoem1Y27jg3ktls1pFSiKcrz2Ev01rOOTSkb5bLjg/0Qe9e/aBY+6cyGbjiIq/GSDsuVQAVG7lU/FRuHnyOoLMWqB13SpwyJsXrcfsQhtVLari5WWM3mCM0ednoqm0LG/JWujXuQLc7p/A46Av99USwykEBATIhc/0YO+UbGi+65+awwsKPN7SC3Ou/kNfbbWLg9v+mZj2+0S4Sb/9iuR4vLh6Q9UH/t9JkZ4b8/oIOltZKq/VJsao13M8HvslSgUo1UpfkJLkj5cvXiL4bbOSH0mRhMtreqH9/lu4OnU+Vqy5gYjE/3+nAjE0k6jtE8HXr0S85+LFi8tDqjDgpF+NqN20srKSkxhmOKK5rBTbYPRo4OJFYOZMMXaScpmIe0qUgMGePciyezdaFimCK6q4RwSUUpgKUWcpJvF4uTTPXVp+TZo6SsfKZscO6IuxPkuWfB/3hIYCokvhzZvAvHlAOhrXV33jcP4T0Zz0zh2knDkDhRQUaImL8NsPSTqwydKXU1P6oDSqVwdq/tvKaPr1KBDsfBDrZp1F8b9mo3ZeA2gkBGPriPqI7HYWfZz+YRDfDGjx4sXYt28fDh06JBeWM4zo51g7sD+elxmHCb9Xgb64Dke+wfJpg3Ha8DcsH94BFrFH0bn0LOTduBNTqijHx4z0voFHr+Lgees4dqw8hdcaXnDJNxqvDw1F8s11WD/jFuquWAW7p38hz7q8cF1ZD0eXjoRz7uGY3qYY9KVtJCf64O+BdfCi0UHMsT2POv088ffpsaicSdXv2vsKWnfegLITJmNYRSscn/47Vnm1xYqVDWCjXEMONrt06YLmzZujV69eqrk/LxFwbnE4h/2tHVRzviDBHcsHr0eZmdNR8rs6wH4vEXAuwJ6jcWg5eyIsrvZH7l1V8WZza1iq1vgmiVG4vOUPjN+UiOEbl6FRTl0gPgDnlkzB0md5MWlybxTJIr4VnyPtwz5pH44p98HhB+ftinwwHcNG5sVfp1ojZ8A99F9yCs269kZtu/fp6P4fRO1+tWrV5MHffzViUPnRUqG0U6dOaNKkScbK2En0FeL7Lm667BHBU0YmlbXw559AhQrKAFTU6KY+z0Xcc/06kkWfTyn+0RL92ROVrQdFcCriHo1SpaApYp4qVZTzU3vzBpgzB7h8GZg8WZnHRgpS1SWtx+H8/13xRLRerhw0pQ9HSwwALQWeOHpUOUmPtY4cgYbIQstgk76JBizta6Bki0K4dfccAmNj8OLYRDyIm41mv2Cw+csxyYoGdSoj1M0dz8Oi4XN6DR4Ua4NOpZTBJmK9sGtYHYxZuBuXA83RcesRbJlSHVm+EhgpFEmIi/2wCbiGhj4MU7deyWKgaiWQmgmMDb/8IyD6sRQoUACvXr1CbOz3ZJFWj5jApzixdxmWLZOmEy74IL1RmAe2blonL1u3bQ+eBqTqNPvqMg5b1kRBcUyjfHDi4A7lNlasxD7Xt9V8CVLAvwerVojtr8OB4x7KbMBxvri05SzcvF1wUDxHmo5df4Io1W+x/6Mjym1J096rLohJVCAl0Qt3d+7Dm3eVySG4v3oVnqT6yOJ972PPBTckPjuNfXtuIiA+CQHOZ7FtnXJbYh8OnlDug1h38z1nuJxQvrc7d89i7Q0ddJw2EQ1yqJJL6VmjRo/BqFPAEgFRyvceF/YK53e/3d5FeCWmID7iNW6fvIGbLnew/fI9RMQnI9H7lmod5XTwziuRz0yiQJS/C07ueLvsCJ7LBz0F4Z73cWjr++ds2voE7+qPpc9iy8b3n4Xz288i1hM7p25F3ikNIDdgsy6MocUCsOWE86fdIH4gb29vue9yxYoVVXN+LaKGRwwq7+zsLNd0Ev0qRPLIBuk4yec3kwJrufbRxUXZzPbw4fdNbAUR91SuDK2JE+UY513cc+zYu7hHUyQh+jjYFNs4fhzo00e57b//lpvrqjPYVIef5xabaINsa6ucMmX68K4A0bfQy4TyFWugYVFbOUGQhnkpdJle7V3NEmVk2sjqVA11Qt1wz/Uhziw6iQbdmiG3KsExfG9i0bE6GL1sKZZOH42WJY0QeDcKCZ8b+0RFW8cQNsYOCHrhi0hV+VCR/AqvVcno9I3MofXyNdyD3w+4ExrohigrPeSx/lLNl7I/l0iacv78ebnW42eSHBWA01u2Y/8lbyRKP2Yx9zdgpaqba7zPXSydtQrnX0ZJv3MaCHp8DKsWbHgXdL66tQnZKxaHYbQ/jmxZiPWnHiJeIf0gJnvg0ITpuPQqAE+3rcS4rdeQqNCEIiEUp9dPwubD7oiOfo6df43G4A33ESu9bkrIM2wWNwc8QpHy6hRG/3UJQdJ8rUR/nF26C1eehyM54RlOTJ2Dp+/ayvrgzLAhuOip+lPQ0ISWpgY0pH81pX8j31zCyuP78SoiSXoPWogPeYANk+fhqHsoYp+fxvhRQ3DmjfQ6mgoEerlCL6clStlb4YN7CmZ50XtoR9Swz4TkeFdsGTsVO1xC5e3535qDwQMOwxMa8uuJWixN6bUR8RCrB63Hsxhp29J6iV7XMGviKlwLSJSC0xfYvXoW9j3wh0JaFvt0BwYPPoUXoR7Ye2wVrnrFyM/R0vLE3j/GYuVdf8R738HiGatw8XW0/P4CHx/HqkUb5aAz2uUA5vu0k66Db++M6CFv+boI2XoE9/6PrZ0PHjyI8PBwlBHdYn5BopWJaE5/69YtRIn+XkS/gN27d8vfd9G64ZcgkggtWwYULKgMDEWNpwgs39ZkpiZanomYRwzzKB5/nM1WDLUiakPHjVNmw7W3VzajrVUrXcZIjOooQzGwdIBToRKwMDBEnqpdUOTnHgeX0pCOeRHUb5aATaO7YdqDnmhVJwfeDXqib4AcGo9wQwoMhICHO7HqzDUEXwiArzznUxq6RihWIj9inuzGBVd/eRzXhxs6Yau3crlunvLoWc0Vk1tshNzDMdITO3cfhVGB/Chs8eVO/GIQeJE0RYyTeu3atZ9oqIQUBD8/j6fXAvFbn7EY0Ls3BvdugTJyA4EEvLl/FA81rDGkTy/07t0H/Xr/DrMUZ5xzEf1mX+DktGLoWMUKEf4PcNzLG7U69MbAvr3Rt++fmDKmCwpo+WL7IV/kqd4NvfpI8wf2Qqe61vA9fhh+ci2lJ/IXrYuW0uv26/87SmtEw+N5EIIe7sGpJ7nQRprfe8Ao/Dm+Cxyzf0vObinUsimO5lXyQztfTTT7rQxyZi2MNm1HYmC//tJ7kLYnvYdiZZ7CxUcVADzOhYLte6NL22bImwnIZ2YJc4PPDFOlEv/wJNbdyovOg0bI2xv1dy9k2zIc1/xyomTtsijtUAJtKjkik1ke1B49HJMGi9fsjQEDf4eTtx9eRqQgwv067t+wQdv+o9BXWjZo6hRM7F0EmY1sUKvRUAwbMFi1r+PQrPl93HoRgNf3DuOxlg2Gis+ij/RZ9OwO40RnnHf1xSuXo3hZrRQc3t5sEbJkQ1Xfg7j3D8PHqovIzHpGKnQ1atRIKlv9mrcAxdAoFSpUkFs2iKCT6FcwZcoU1K9fX77Z8ssoXBiYMAEYPx4IDwcGDwZatABWrxYDEatW+gqxzpo1QMeOyueGhSkz0krHUu4vmk4x4CSiDEIXxZsPRpmQKJRcPRplUhe4beth//HumFErqzweXq4Rt1Cle0/kMPDAsy+NUKKpi3zVOuHPpuZY0Dw3TKTnVfUfgl5vx6HVy4rO805g5W/jUFxaZmhdBWeif8PMEV2QzfjLTV3EIPAieUJh6UdJ9GkRtT4/BYVowhmIUD1H5MlhJGcQ17EojYpyhVQU/O97IWem3MhqKmpvNWBsmw8VzAtAyyUYsYEvcNWpLAoYJSMi2BfmmllQJIcNtKVfGA3NTMjhWBQmCQHwzmmIkgWk+dIx0NQyQb4KFWFa0AeBESKtby1ULGEpt07Q1NWDia4GFEnJMG/QFa1eDoWjdIydOk2Bt7EtrE1SZ8H+djpGWZA/W04kXpmCzBaZYJWzLGacVS0U6pRGkVT3CgLCYxCb8PHwVe/5PbuBxDpOKGKmDEoNMzdEuzF+uPXso2zcOubIVzoPou6sRSvpfZjY1cOqR6/kmxgRr9/giW5J5M1hKP8g65jnQenSWaX3b4Kc2fLDwHUTKhXLLn1vrdFH7gIlfRb3vJHTNDds5b7DGjCR1qtomh+ariGISIiAwkBXzu79jnY25KsXgzvPA1QzfixRmy+a1aWHPsvqJM57Mf0taj6IMrhz587B09MTffv2lW+0/lJMTZW1nWKczFWrRJt6YNgwZcAogu82bZT9PEUgKRINicdiXoECynVEoCm2IYLUTZuUzWzN0vdoCww4iSjD0MhcDUs9fLG7Y7YPL24amtCpOBqJ8bGIiZGCiNNr0afv3/Dw2YPWWTWRtezvGHdgFUrZABY1pyB8axeIIao1NI3g2PpvXPVQPi9yfE9M3vwEqxrZy5vV1NFDpbHBiJOWxcS+xJ4FHWFv8s/9KoyMjOQ+LdHR0Xj9+v9U7fQJDWhoSYGgIgEpct9CIQXJcksgTem9akoBUsq77KyK+Di8CA/AG20FfG+ch36rqrCW5mtoSutpSM9L+TAfnWjWqiHFbu/nJyE6LBjhvtJryk2JtD5pUSTTroAFKQkIf3Ed7aweol2F7Kg+86KcjfgDyUn4ymg0khR4X1uMdlWzoFTvZBz2CkaI90NMEKnR35Lev3IXdGBuawvfuCD4hEXhg3eSFIxDE5vg71MvpaBZRzoOKdKW3wrCi7sK6Gh9+B1IfrUDtU1zoOnE42h5MwAxXhcwwNFeDupFs1sdRVKqY64U9vI8Rjc1R7E2dzBo4x1ExURigxyvScdRfBbSMX5LIX2vPSKC4Plu/z+WjOS4T/frRxD9FS9fvgxHR0cUK1ZMNffXZGFhgX79+uHJkyc4JvptEWVQouXOailYat26tRQrfSYBzq9A/KCJQFv0W1+3Tvp5CAL27gU6dFAuu3oV2LoV2LYNuHJFOa9tW0AkVxKJVNevB8QQUmIbn/1xTF8YcBJRuvTy3gXsu/7yH4KM/5M4X1zbsxdXnn65Rkk0r7O3t8fYsWMRKLLV/b9JP2hmObPBLNkFLu6hckAX53UWJ+RxR41g65Qbb/yf4XmQSD2jkAJFN7yOCUTugpp4etsELcuK9utaMLXMjuiEaDx9E4AkKVJTKJLxwvkUniaYws4/DJfuv0aiFHSmJEbB4+49JEXmQWbTd42fPxHveRNHjj1HvE1xjFx0CGcXd0V0sB+iNYygyBQPT/8QuaYw/OlFnJGCzo/pGWaCwjsacYiG/yMv2Dn9iXO3J6GcoQ68Hu/F9ceqFT9ila82WkrR9qEtx/EiQtVPNzkGnpcOYsPDgrDLZgbrghVgcu4KbvopUyuFvzqO0yfzoVxBS2gZ6CHZIAmJyckIeXwZ10pNx8GTe9CmIPDi+k2cDQqV99skjx0KaN6Gi5cqgVScD27svw6Pl8+gq2iF7ReXoLWTDcJcN+PkdbGCEbKWyIXXPm54Hqz8LMK83fAmTnwWVshiYQeNyLgPz4sEb7hdsETJvP8qT+93S5be+8WLF+Wm4x07doSpuGP/iytatKgceC9ZskQej5coo0lKSsKRI0fkBFkdRHBFSmJsTjGepmhuu2OHMtvso0fKSQScYt7Eicrss+lkbM1/Q8vcykZ6d182eIAYFZOI0hvRT8jFxQXt2rWTE9VkGFJgpKljjIS4MATo50S5wrYfNh/8GcT54eaxy4iwLoJq1cqhcH6L9/1JVUQTI5Gx9ujRo3IGTxGA/n8/Jw3omVgDib44JO3T5euXceruG7wJug+t4t3RvbwDEj0eY/3x83h49TzOnj8HzRx10aaMIXY8N0abGg4w0taErl4mGIWE4ejJ07hx9SIuXDiHM37+yF6gMqplj8fNy/tw7aoUcJ2SApGHySjbrRtKZw/HqVX3kLt7cxTOJO1KYgjuHb2LpIIlUNTkFZZMm4Jzrm64cf40DrhHo1WLNiifKysiox9h//pTuO96B34xPnh+7C7y9xgDu7AbcHZPQqHa1ZDNKhYXh67CG/N45M6TH553r+PSrRvS7/sFnHjhgQQ/LRjYlENpi+dYd98AvzcrCfmnXtsENrkUCLh3BSuOX8WTa+dx/vQxXH3gjdItu+K3sjmhn9kKxgHXcPTCCdy6ch0HNlyCVqsJ6NbMDsZJIbhw/RjOeGZCyeJ2iD63BhefuePW6St44OGP5CfO0KjeAvWK2yIu+jqOHz8tHZtrOH/8Fl4FZUKhcrkQ6nwX56Rjdf3GReyV3r9uWAKCUiqgnbSPGtJnseHEBemzOIszF85DO1c9tKpbSg6Eb0y+isIdasBW9aWLfXYW065aoHPfGsj2A79iz58/x7hx4+QbK92kz1n0W/7V6evrI2vWrNi8ebNcCySCT9HMnyijEGNMT5o0SW7V0LVrV3lIFEp/Fi5dqXqUNv5/43ASkVpl2HE4M5D4+HicPHlSrv0RP9BDhw5VLfn/SY4OxOPHj+EZGA3YFpcCQDcEG5dH6axSGBbti3PXHyE6NgG6RmYoUKI8cumG4Ko/UDZXZmi/TecaF4I79x/BNygS0NSCebHKqJRDfAeTEOh2HbefhyE5RQeWNsXgVDorDBJC8PjyG1hWdERWecDTaLx5/BrJNjmR28YYfk8P484LectAtoKoUdQORjoaiAv1xOMrDyHqiXJJBXeDp0+hU7EerGJfwNc/GbaFHGCsEw63w5fgaWKOYiWcEPfiMVw8AyFy6xoWLIv8Cb4I0cqOfJnDcP2NNio55sIHMVmkJ45ffoQk5RgmsMqZH0Xl7cp/IiHaH853b8FT7oqbCxUaFIWllgZSYkPh6vwQHnGZUamUA5JfHsd1OSmxEXIWtIexz0uE5SmDkjkMECu9j6cPH8JXOlyAtZxwKKtuAgI8nPHY1VM5nEn+Cqik8xquIbZwKmUL/SgfnJU+i5i4ROgam6GgU3nkNBM9YCNxrIcjbne9jwmVRYAXhwdrfsdKzUFY0L3Mh+9NzUSQKfpurlq16tfJUvkNxHBIImvvtGnTMGjQIPTs2VO1hCh9E+NMDxw4EImJiZg6dSoKFiwIkbeA0p+0HoeTASdRBsWAM30QzQ7nzJmDNWvWYMWKFajJsYfpOyU8W45+HQ0w9lZX2PneQOelt/B7ny6okv3HNWkdM2YMtm/fLtfkiazMIksrvSeCzrlz5+LAgQNYunQpA3LKEMR5L5rTiu92rVq15D7qlD6ldcDJbwIR0f+RGGNx+PDhqFu3LkaPHi1n9BR3h4n+K938fdF72D1MOngb1zbeQS2Hiihpo/5gU6FQyM1E//zzT/mGl2hOW7lyZQabnyGa03fp0gW5cuWSmx3evn1bvvlElN6I814kwBP5CERrBvG9rlOnDoNN+gC/DURE/2ci6BTNkERNUKdOnbBw4UK5XyfRf1W67SJsbFoaFUYPQOdOJWGk5phPJAoRTbFFE9Hjx49jwYIFbCr6D3LkyCE3OxTnvUiusn//fp73lK6I8/769eto2bKl3KJh9uzZGDFihGop0XtMGkSUQWXYpEEZkOjjYmVlhSJFisiflfjhdnd3l5OsiObQTCpCP7PQ0FC5Gd3MmTPl4YOmT5+OJk2asO/WN8icObPc9FAcq40bN+LGjRvytUAMocLrNv2sRK2myLIsbi5NnjxZToInbp6IYVAoY2DSICL6JuzDmT6JREKi8H748GH5poHIYlm7dm00bdpULogS/SxEbdy6devw6NEjOVmI6IcoEgXlz59frrWnbycC9dOnT8tNEoOCglCoUCE0atRInhh40s8kJCQEu3btkjOsR0REyGNKt2jRAnnz5lWtQRkBkwYR0TdhwJl+iT6cwcHBuHTpEnbs2IH79+8jZ86caNasGapWrYoSJUqo1iT6sUQTOhFgbt26FRcuXJBrNxs2bIj+/fvD1taWY21+h4SEBPj4+MhNFEVh/u7du3Ifz1atWqFSpUpwcHBQrUn0Y4kkV+J7Kc57kXla1MiL36M2bdrIv02iTzJlLAw4ieibMOBM/94mYxA1naK53d69e+UaUFEIFYV7UdCvX7++XMjPnTu36llEaUN813x9feUajcuXL8tBkEhqJb6Xorn377//LicKEY+ZICTtiOMrpjNnzmDRokVys0VRwBfHWfT3FOe8aH6fL18+ZMuWTfUsorQhai3FOS/O/bNnz8rn/Z07d+TvpGhlI/IMiObz4pxns/mMiwEnEX0TBpwZj7+/P169eiXXfF68eBEeHh5yUCBqRsSPv7m5uZzpUhRM2QyP/guRUVbUWr5580b+TolB20XzWJHgxs7ODlWqVJEnNp/7cby8vOTz3tnZWR6/8+15L1pCiPPcyMgIKSkpcr9PNmWm/0L0wRS/LyLIFN8hcd6L8198twoUKCDXsovzXtzopF8DA04i+iYMODO+qKgouYAgkjeIpo7iX3F3WkyiQEr0b4mbFaJQKQqdIvi0sbGBsbEx8uTJw2ZzP4mwsDD5vA8MDJTPc3Heiz6golaKQ6vQf2FpaYksWbLIj/X19eVrgLiZUbBgQdZi/qIYcBLRN2HASURERET/VloHnOx0QURERERERGrBgJOIiIiIiIjUggEnERERERERqQUDTiIiIiIiIlILBpxERERERESkFgw4iYiIiIiISC0YcBIREREREZFaMOAkIiIiIiIitWDASURERERERGrBgJOIiIiIiIjUggEnERERERERqQUDTiIiIiIiIlILBpxERERERESkFgw4iYiIiIiISC0YcBIREREREZFaMOAkIiIiIiIitWDASURERERERGrBgJOIiIiIiIjUggEnERERERERqQUDTiIiIiIiIlILBpxERERERESkFgw4iYiIiIiISC0YcBIREREREZFaMOAkIiIiIiIitWDASURERERERGrBgJOIiIiIiIjUggEnERERERERqQUDTiIiIiIiIlILBpxERERERESkFgw4iYiIiIiISC0YcBIREREREZFaMOAkIiIiIiIitWDASURERERERGrBgJOIiIiIiIjUggEnERERERERqQUDTiIiIiIiIlILBpxERERERESkFgw4iYiIiIiISC0YcBJlULVr18bYsWOhr6+vmkNERERE9GMx4CTKoBwcHFCzZk3o6Oio5hARERER/VgMONOJpLhQBAcHIyw8Aokpb+eFyfPeTpExcUhRKJelNUViLGKTlBtPSYxDbFQMklX7kRYUKQmITfXe/g35OETGQ+yd2LeY2Ng03bd/LSUZ0ZHhCI6Kk/fpP0lJQmRELOKT//sHqqGhAU3Nf3mKS59DVGgoEpJVf/+DxNgoJP7rXVRIz4tAVFyi6u/vl5IUj8iwMETHJ6mOufQacVGIjBN/pyA+IhyxX9hR8d0OC4+B6uv9RW/Pt5CwcMR9cWXx3qTPLenjL6DyPYekOl/fTdLnLNZOio9FZHSi/Pi/UyApNhqxsQlQSLuofG/x37lNIiIiov+OAWc68WCpA7IWr45+46bjSVAywj0fY9v8VmjWujVai6lFYwwcORVnnwSkfbCVFInHm0Zg8bUI8Qf87h/BviVb4RmpXJwWYkPuYN+fM6X3pprxLzxZXxE2vfYhRNo3/6dHsWXvHniGp10w8+8oEPv6Mv4c3BENFh5H1LdGbh/zvYmeLeZh37Ng1YwfxO8QehZ0xP7nqr+/JuINVo8djmv/ehfj4HZ0NpaedVP9/Z2kIPnZhU3o1bwrVp9yQ6x0yBXJSTizbgj6bryLWATg0oQ/sO9xjOoJH4q/Pgelqk/G3TDVjC94dXIwWrWsjaqla2D9PXEufEZSME4vXYYTbh9/kSNxYWYd5ChXS3m+pp5mHEF4SjLcz+3D3yvv4R924x+E4vrfQzFvwSGExgMJzvsw/M8L8FctJSIiIvrRGHCmI+YNJ2HpkplwMgvA2cVzcSh5AI6dPYuzYjp1GD0LRGH+9N1wj07jYCvKHfvWX0RsjNiuNrKWaYkOo3sit6lycVowtKqADounw8laNeM/0YatYwv06tgJuc3/X81IUxCTpIEa7Qbh4KAmMNHVUs3PgJ7txvjdqsf/igGKtJyKUQ2LqP7+TikpSNbKjSZ/zEHPxoVh+Mkht0Ht+avQoYSR6u//Jm/TjTh1fD4aq/7+rLDXOKeZE3kzf+G1OsxWnq+ppxmtYK6phYL1O2DysLKwUK2aFvSKd8DaxXVhq/qbiIiI6EdjwJkehfvg0lMDVCzvBBPVLOhaokz7ARjYthyMdTSU8xLDcG/vCgzv1g3dpKnHYQ/l/M/5aN3u3Xvgkpc0P9IT2zdtwUF3bxyYOxDDTj1HwKOTOLx6N7z93LFtzDAcSb3ZmNc4MG0jrnjFSX8kyevOUW2zW7et+NIexIXex+Gp8+ASLG3i+SmMWXcez64tVj1vBFYfeIgIVRwtmhefXKXa5pQteBoaq1yAZAS6nMLuQ4fgFZEkz7m38+1rd8PkLecQEpsCKFLw5Nw6LNh5BMvnjVIt34tX8jNUpCB76+ihymX9/8CKcx5IUC2KuLMag1dfwold01TPnYzjLiHysuSoYNy99hJRyAtTuGF1vz4481pepCRvdw1uhoo/4vHm0h5MVe1ft0UX8c2VxmF3MO/t88YuwoXnwcpmk4pkPD63HivPv3i3v3h5AgOGboBblOrv1JKi4Hx8A0aptrX3YbRqgYrY31Gq4yBNkxatx8twINp5H/rP3IOo0AtYPmcObniKzzsGD7a9PZ7SNGkhzoiVPxEP91MLseaiu/xZvLh8GAsXHcbSpVPfPVc+ZomhuL1zKXYevoWot/dQpP19evwwDh16BPkjDruNeT37Ys6mbTi1exo2H7n9ft13AnFtxgQcdlZ9T6L9cGjD36rXmoObH1dGel9Dvz49VcuHYPG2mwh+dzC/LtTrPkyyasHc8F8mapI+N3EcFm14hHDE4un+KVh+9SlOz1cdy3GLcckj5F3T2LhQD+xeqFompsWXPvvdSXA9jD+nXEFgxGtsXjrl/fqqada6/fBVfeSu+1Mtm7gWD3wj8Q+tjImIiIj+EQPO9MjMEo4mXljfpwH+OPm+PaOORV7Ub1oS2fW1gZR4uJ5Yg+U7H8CxVW8MGtQZ9nsaovXCq1Iw9BHVujuPuaFq50HSuoPQNt9rjOo7H48TrVClRjWUzWqJcs16obujFSK9nfHo8j2EaZhAM/AI+h55pNqQVJZ/eR0rPfwgEqOGO+/BkCEL4VmutbzNelmXoFHpdZDCjE8kxnji0fGz8JMKvwkBT7F/Tj80vZpTel4/tKigh8P71+Laq2C5AHxlaX0sPFoAraVtdivgjaU75ehNkoJIf2fcefQQYVJg+XRTdfS7VBRdpfUG9WiEpEPzsOncS6lwr4DP7d2YOHMlPC2qoq+0vKbZWLSvvwPSUik+eYgxQ4dgJ5zk/e7aqADubv0L66+8gohl4l5fwbKpg7ExurS0vCeqWN3E2MX7IT6JlIRIOF+7hlvOQUgwMIWm3w6MPuMitiqLdDuH+S8jYGmsQJDzMcyctgtJNdrLr1MzdCAav92Hr3lxFNXqdcLjYp2k5/VBw2wv8ff85XgQECW9NQW8Xa/iolugFO6rBD/Fjl3X4SdiwtSkYM/z2hYsXHEW9k17SdtqCI+RM3FVtRjRHtg8egycbWvK+9evS3Mk3j+OpVuvIMamPHq3qAB9oyKo37w5HKyS8GDraPR5YiuvO6hvF5SNf4DNy7bjRcjHEWAi/J+ew5VnAfJnEeR+GhNWroafWVnlZ2G6FyO67sQrLV1oJnhg9ZVL8I+Kl5+ZFBWIiw+v4HGSBnQibuKvel0QW0f5ne3ZsDBOLF6J3Q+k7X4gCh4nDuGRjxQ1Jkbh4s65WH3JB427SM/rYIn1Q1eq1pP4XMPvA7bBpt7v8ja7Ns2H+9vmYNf5l1KY/E8i4H5BG0W088Ds02rWr5OOQ+CzRzh33UsKNxPh8+AoJnduBjcHaR97t0WhoEtYv+UMgmOSkZIcj6Pre+NYQg30Esda+tzMZvZE6x2uqo29l+z/CAeOPUekYWZUa6A8D+Vj1bEGkrxv4lWKJYz0ALddzdDqSAF0kZd3RKnXpzBwyVHE/JdO1URERESpMOBMj3Ryo+v2ueivH4u59a2hpaUlTaUwZP4tvK1PSogOxvHLW6DXpDdaNigHJ6fqGDVpHHSXD8L5j6oZU+Kjcd/jBaKrd0bt6k7Suk6o1b4L7N234FWoAbJlzw4bI33Y2BdFEWtD1bMkWjao2bw+fEYcxWN5Rizc7pxHLkd75DfRxaWdA+BX6w9M6V1f3mabqcvQ/n4frE4VJH9RZAusHdFUel5pNGraGnbxibhy3xcJXnuxcrYXOs8chfrSNqtIwfSYGp9rhxsC14sP4Z2vKqpK6zlVaoFJOw9jcEN75eJkQzjmr4fOLRqgjLS847zNqHVrOLZf9IPz1V24mKkcZgxvKe931ZrN0baQCZz3HYKPquueRUpXjO9WR1peAd16/Y744+dx2lu57B3tbGjUoSk8J5+BMhSIxqMrJ1CkRinYa6Xg7oH98MzeGb061ZZfp+P41ahye4S0D28D6M+JwNnN03Gn7nysG1JDel5ZtOzUAzU8j+LAeU/VOt9GkZKE0yfmILJef3RoVl7aVkv8sbaH9ApK0a8eYK9OadRrVUXev9IVKqJaITMketxHrLYtiuXLCm1dK+S2t4d50muc3amBrnWUx8ypTEXUrlkEfonu8Ix8WwP9JcZwKlYPHZvUVn4Wf6xBAdfRuOVuBIcSFWB4yQ93pGBa2mOEB7kiNMQbTkXsEHv/KBbbjUTPdsrvbIU69VBJ5wlevvzy8YsOc8XhazdQvNNQ/FZNel6trpg4qYxqKfDy0XbcdSqEQfVKydusWrU28mTLAtdXfkh4F8F/QVwk3mTShWE2S+imwZU1vNMy9G8g7WO5umjXoRhee13D8/AYpCRch+uGaLRs0QnlxbGWPrd2g6Tv7ZVn+OI71zZEjjwOys9GmrSfnsBrg4kY06MKMmk/w7m/7qFjr5GoJi+viQatrRDh4wrfpP/YB5mIiIhIhQFneqWRH70feyBFChqeHpiCwoUTcGJxQ9i2ngqP0HjER96F1yE9ZNNPwPPHj/FYmp5GZIN9iQS8DvywmaOmvhmadR2PwcW1cX/zKJQq5YTidcfilmr512Qu1wydTf7C8ZtxSPJ5hPWngey5CkNfJwiezzVhkS87MqnWhYYTqo9PwYlzt98Fxl9UNzvsVC2DIf0rHorau6TXbjirMxLFCyoXAWawK2KmepyaBaq36wfjBS3hWOVvnJLe/5MXvu9rbMzNYFutJHK8bZOsUQYlhyThmu9LhLmEwFFhAzM9PeUyXRPkKVEQz5Jf4kWIcs+1GuWCjfzorc83PsxSpS0aac/GxQfxSHx1DQtOZUbpovmk9+KD20+vQNdJE8Gqz+fxE0NYdUiU9uFrKV5C4HshFi3s8kHj7fHJlAflamTB2scPVDO+jULhiYjXJqgkvbe3PQ41cudDc9Vjo4INsWZwS1iEvMapGbWQo3AV9Jq3B57S5/AJk4Los24YqmUOxf3j01E1eyE06DkH196oln+VEUyMc8H03WehKX3eytcwzl0M9XPfwOWbXhDZf5+ePoJLobVQMLsRLKqOxJM/S8P31iXMG1AF9qV+w7xLj6Ww/ssSI17A6JkFaufNqZqjARuHslLIq5SnxnTsbV8Tnu7OWNzDEvblGmPpnpuqpV+jQLSfJ6L04mCVKwu0VXM/sboXihUrlmoahZOvP382NLHPLX/vZe8eSLGjfhX0Pb4KOaMvYEW31iifvxDaL/hce+nPiUPgrj/QZnMA/lzYGjnl7eZHt2tn0MDwEc7unIHfsudF3X478cyXDWqJiIjo+zHgTPc0UKDxWDx69AhX9oxHHefDOOymzMYZHfAaRzfMx+zZs+Xp77/Xwy9LI+S3+jChTkpiJC5u/gN9+47GklM+GLzoMB6enIGyquVfZVkKHbplx9a9l+HmdgvhBlooU9gGOtI3S1tTE9mMP02eomligP+a0icm/OPmklKskym36tGHLGpNxdV9M1A01yNsnvgHmnQdgpnnP212qBSHmFSJR00N9aGt9eHpYaavB32tf9lUMnNF1G5sgb3Hb+DJvYtIzJEFFexVIXhkCB7tXfXu8xHT7diWqJbrXYj+RZlNU9U0q9gafTrvaxSKcESl7l8qmJjCSvUwxusCZowajHETp2GrWw5sOXkJq4a1xNtQ7QMx3tgx8w8MGDsR83Y8Q7UtJ3FszR+o8NmV/wWjXKhcvyAOSccvINkf9y6fQ6E65ZBVeqthT1ajU4t+mLp4tfS9boojp/ZhWJWi+NpRSI6K+CQLrKaxqeo9JSP43na0Gzwc02bMgovRHByVAtz+LcvJS78uCUGeYdANskQ2K9WNis/puUo+V99Ps1A317/LvpUc/gzLB9TA4PFrcTVbLSy5cANbh74Nmb8mEb4Pt2DY+NsYtXIf6rw9beIDcHhCXXQZOQcbLgSjzuZTOLSsLfIz0xARERGlAQac6VD4q/NYvecAPMI+7JRnZVcRjmbW0EiRPlgdM5hWyI9mYxdh8+bN8rRp4xS0zpoF2c0/LJInxPrD5YUH6kxcgU3Sep0qZEfEqyf4lpExpAgFZVt0gfWBZdh+zAs6RiWRzzqTFAYbw8g8SdquV6q+bz7wOAM4OOT+alDwNZnsiiNv8gX4vos7Y/HS9X0f0o9ZlGirfP8b1+HvpiZYue+mMrlKbCwiX3gj/N3OvYb3RS2UyJoN+taGeBIdgMh4VaaY5HiEePsjq5YlrIwMlPO+WSaUqV4fhgdXYcvRUNhmL4nsmQyk42MC09zWqNBjMtaqPp/Nm5djYE1blMhirnru5xjCxE4HpzxSRYrxIXjzPBKVsuVQ/h2bhHivaCmEVooK9VU9+pCGZh5Yl47DK5+A9wmGXrtD+ogkSfBxvg5/+wqYvnIDNm5Yj0qZY+Eb5IXPjVyT4PMUR/3s0Gv6SulYb8CkytYI8QpA8H8Y5uZDeshXvg6KXduHY2dO4/TD4qheMo80Nw4u5/cius14bJSO3ey/hsNeMxAvosPfv5fP0LW2h4lVDJ4Fvw87wz0ewll+FIGnpy8ib5XuWLtxE5Yt6oZcmgEID/5cr+OPJMXDKzQYAeZ2MNdVzVOTRI+TOPemI2ZvkL4zU3uhZNYYvDz7z30t47xuYO748zCZPB+dS7xLNwYE3MXqIyUxdp20veVz0Kd6ZkS4RCLuay27iYiIiL4RA850SF9XE292r0SPtZdUc5T83c7hZskKqJ3fEAaZCqJanQJ4uG0Tnvgri+DO29pilrMmDD+KmTQ0dKEIj4LPE39lc8TQm5g9cD3cE5PgH/61BopKxo4tUcbqOFafdEbmMk6wNha1gIYoV68T4nYvwUZVEhePI8Mx/XoXdK+RVf77P8nVAF1qXMCqmRchthrtfBhzD34uqonE5Xkt0GG/Klgw1kXmwFiUtckCOR6IC8a1M7tw9J6nnFzn2Z6B2J19EDqXzI78FapA6/VJLDyhTPYT6f8Ehy8+hFGhirDJ9C9rOCWZS9RBHsVBbLwXjLylCyKTviY0tDKhWt3WiN69FodclRluw64sxLAZIdAy/2KDTIkFKndshjcbhmLBdRE0JeL1jQPY6ZcD1UpklwJZDWQy0oWf6xl4i82G38eCifvkZ35MUzMTnEpWw8td63BXzir8GnsGLFMlLdKEtq4Wou56wTNSisoVKfB9eAI7t13F88gYxH7UoVFLRxeaUffg4aXMlRrh9wiHdm+Fi0cEIuMSvtDg+Nvo5S6PVpWeYeqgmfCs2BSlc4gaRG3oGWgg6LAbfMRKCUG4tm8/Ltx/CfePmoynZmhaAPmKmeLY7h14I2q0Q6Ug7K8DyoXSNnVMtOH70hMhYjDbxGjcPrsfO89fQVhEEL7WnTExNhwhIeeQs1w+/NtbEv+Whr4edOJe4aXIsCV5dXoCZlyORfKtwC+P4Rn2HCsXLoB34ZYY36z4hzd8pM/OUuMN7rgrI8xQ9zPYevwE3lwOgX8ym9USERHR92HAmQ7p2VbEmJXL0ctnLGxsbN5Ng/YqMGP0YBSw1IOmniVqdR6JBkb30a5IDnl5tRNdsXRRb+T6qHpRzyQ7mvUYiICtdZBPbMthOvKuX4OmcfG46eMPmBZFk87WWNm9EIqNPP5JoVbDoCAq1i0NXVMDlHXMB0PVt8quzkQs6F8Ih2oUll+/7OqC2Ou1CDUtv2OMTL0s6DD3PIoHNEVhaZt5Bl9Dqaqfq1IyQpnfp6L4lnKq41MQzV7aY3yPSlA2eLREAZMsODznN2STlpffWQ8bNw6FnZEmjB0aYOPcoUiZ1UF+rn2dgfCqPQ2jWpWB8ddiwS8wsCiC4hUKwTy7FUrlzwE9ud+cJgrXGYqhtfWxrGIB+XXyN47GpDNTUfGrY4hqw6LyULhv+x1nG+SXnpcdJWfeR7ORk9CgYGZps1pwbDIAjczPoVoB6X3nW4tis0aghurZH9DQQolm49ClaBD6OeaStlUSjxp1Vq2riZyV+6JvNR8Mqp4PNrbZ0HT0Q9Tq3hUafkEIiIkFirfEiCKb0bxJE8x+bYd5fatgy6Bq8nsp2XQUNGr+jpoKf3gFxLwbzuM/0cmGOi3r4OWrl6jZpDps5MOjjWJdN2Jc/qkoKz7fHNWw8pUtOpYujeupa38/omVgg7a9xqFo0CGUyCu+67Ng16uLaqkxSvX+A61dt6F8ruywye6I6buz4Pc2NRDlG4C4hC9HnAlx4YjyzA076385HMp/oJu/A0b2tkCPCnbysS61rwBWzm2MRP8HypsMn0jEywdHceLIYRxc+juK58wqP09MlbtPxN2kMli5vhUWNnGQ5zn02Qmrht1QyMIP7r5MGkRERETfRyNPAcev3sJ+4XJf9Yj+n+7MtUajZyvhsrI5vtbgkr5BSjJOzeyKxR5tsGptIw6KT98sKe4ixhcdhhxbz6FvmX/X95KIiIgoPbAr6KR6lDZYw5mOJHg9wI2bdxHy8XiKRKR2kZ5XcOr0Lfy7wWeIiIiIfm0MONMJm9L90bNIHJ7cecCA83tpaCBP+YZoUc/+3XAYGVFycjISExNVf9H3ivS8hotXgmDfswscbb+SiZaIiIiI3mGTWqIM6sSJE7h58yZGjRoFfX319y0kIiIiovSPTWqJ6Ju4u7vjwoULrOUkIiIiov8bBpxERERERESkFgw4iYiIiIiISC0YcBIREREREZFaMOAkIiIiIiIitWDASURERERERGrBgJOIiIiIiIjUggEnERERERERqQUDTiIiIiIiIlILBpxERERERESkFgw4iYiIiIiISC0YcBIREREREZFaMOAkIiIiIiIitWDASURERERERGrBgJOIiIiIiIjUggEnERERERERqQUDTiIiIiIiIlILBpxERERERESkFgw4iYiIiIiISC0YcBIREREREZFaMOAkIiIiIiIitWDASURERERERGrBgJOIiIiIiIjUggEnERERERERqQUDTiIiIiIiIlILBpxERERERESkFgw4iYiIiIiISC0YcBIREREREZFaMOAkIiIiIiIitWDASURERERERGrBgJOIiIiIiIjUggEnUQYQHR2N5ORk1V9fFxAQgMTERNVfRERERETqw4CTKAOIiYnBmDFjsGPHDtWcT3l7e2Ps2LHYt28fA04iIiIi+iEYcBJlAJaWlkhJSUGfPn1Qt25dnD59WrVEadKkSShZsiSOHz+OQoUKwcDAQLWEiIiIiEh9NPIUcFSoHn/WC5f7qkdE9DPz9fVFnjx5EB8fD0NDQ1hYWEBDQ0Ou2RTBqKamJrp27YpZs2bByspK9SwiIiIiovfsCjqpHqUN1nASZRC2trYYNWqUHFiKJrZeXl7w9PSUg00hb968aNOmDYNNIiIiIvphGHASZSD9+/dH7ty55ZrN1HR1dVG+fHm5WS0RERER0Y/CgJMoAxG1l/369VP99Z6JiQnat28v9/UkIiIiIvpRGHASZSCiOW2DBg3g6Oj4rpZTS0sLTZo0QZUqVeS/iYiIiIh+FAacRBmMnZ0d2rZtC4VCmQ9MjM/Zs2dP6Ovry38TEREREf0oDDiJMhg9PT1Ur14dpUuXlms3RRNb0X+TiIiIiOhHY8BJlJHExwM+Piiqq4tWDg6okikTupcpA3h4AMHBQFKSakUiIiIiIvXjOJxE6V1YGPDwoXJydQUCAoDwcAT5+SFUWmaXJw+0jIwAkTAoZ06gYEGgRAmgcGHVBoiIiIiIlNJ6HE4GnETpVWwssHUrcPgw8PIlkDUrkD8/UKgQkD07IAWZCg0NaIhxOEXt5osXgIuLMihNSADEECnt2wPVq6s2SERERES/OgacRAQcOABMmgSEhAAtWgBduwK5cokBNwEdHZGaVjq7U43FKYJO0Zw2MVEZbJ47B6xdC9y6BTRoAIwbBzg4qFYmIiIiol9VWgec7MNJlF4kJwNv3gCDBgE9ewLlygGnTwPz5gHFigGmpoCBAaCt/WGwKWhKp7oIRkXTWnNzZZB69CiwZQvg5QW0aQPs3g1ER6ueQERERET0/VjDSZQeiJrJa9eAuXPl/pkYPhxo0kS1MBXRzFY0n42IAOLilDWbIgA1NFQGmmZmyhrQ1Hx8gBUrgH37gKZNgQEDAFtb1UIiIiIi+pX8r717jbWzKvMA/j+9nqal0sJQsdACDXIpRKqlDiAOUBBjimAyoYN3TRCvgx80YCIyAyFe4IvRiVIRI4lpizI2ZcIMiQVCYCCt6VARsNzBsfaCLWAplJ6eM2udd5+0NTPmnNo3bub8fskK+zzvbvf+0qZ/nrWeZUstjDb1Ps1Vq5JvfrNespl88YvJ8cfv28V89tkMrF6dnrVrM/Dkk9m+cWNefvHF9PX1Dd6/efAhh2TirFkZmDs3PfXsZu2O1m7okBpU77wzueaaZF75S+aqq5Kjjuo8BABgtBA4YbSp02c//elk/vzkyiuTmTM7D4oXXkj/8uXpWbkyTz38cO79/e+ztpT/u4TRujl2dwmrE8rrN5XXx5XXf1tC5umzZ2fqggUZ85GPJOeeW3+XPeqZzhpo6wTbeka0DiICAGDUEDhhNKlXnrz3vc3U2RtvbK42GfLkk8kVV+TZVaty08sv519LoNxYytvL2jX4hj1qL7S3rKllnVTWpWPHZvGMGc1Z0Bow61bbIQ891NTrOc/LL9+3EwoAwP9rhgbBaFG30tYu4/r1yQ037Ambtb56dXaeeWbuX7EiF730Uq4rtcfKo21l/WnYrOr/VXq1rE1lrSrrH3bvziUbNmTbN76R3Zdd1gwOGnJSiaR1MNGyZcmaNZ0iAACMnMAJ3eqOO5KVK5Mf/WjPecoSFAfuuiuvXHBBlm3Zkr/v78+65smILS9r0euvZ/XPf55d9VqUodBZhwy95z3JqacmN93UDCECAID9IHBCN6r3ay5dmpx9dnLRRZ1i8cgj6bvqqiwvzy8v4bNuod1ftev54MBAruzry0M/+1n6b765uaOzqtttP/Sh5PHHdTkBANhvAid0owceSJ55JvnEJzqFYsuWZMmS3L1uXf6phMSXOuW/RH9ZNXT+y6uvZtP3vpfcfXfzoKpDiupE2x/8oFMAAICRETih27zySnLffcmxxzbXn3QMrFmTZ1asyPU7dmSvE5d/sdrTvK2EzhUbN+a1urV2yJQpzV2fa9cmDz/cKQIAwPAJnNBtNmxoQt455yTTpjW1rVsHrz65szyr15782dHS+6FOtl1S1q76uT/96WBt0MKFyfTpya23dgoAADB8Aid0m02bSvLblcyZU/6Edv6IltrGe+4ZnDC7takccA+V9R89Pen/8Y+T/rrZtqgDhOpdnbff3kzHBQCAERA4oZvUoFenxU6Y0AzuqWrQW78+T5T1aMuhb2n5/DG1y/n8851KcdppyWOPJZs3dwoAADA8Aid0k9rZrMOCDj+82cpa1ZBZQmA9t/lcU2nNvWXt2rkz+fWvm0I1d27zHZ54olMAAIDhETihm/T1NZ3Egw9OJk9uaiXs9T39dDaPGZNXmkpr6o2bm3bv3rfDeeSRTeCsZ0sBAGAEBE7oJnVLbZ1SO2lSs622KmFv19atB+QalOHYXEPviy92fip6e5u1vY4WAgCA4RM4odvUbuJf259+h56e7vheAAC8oQic0E3qVNp6/+Wrryav1xsyixL2xk+fnjc1P7XusPHjmy29Q157rfk+U6d2CgAAMDwCJ3STeg3JYYc1W1qHtrCWwDnumGMyo78/nVOdraljit5cQ+/s2U2h+u1vmw5nHWQEAAAjIHBCN6ndxRIuB+/i3LatqdWw9/a3Z2Z5uVcMbMVZZY2bODE56aSmUNWJtfU7vPWtnQIAAAyPwAndpHYXZ5ZoWbex1tBZ1bB33HE5tqwT6+sWXVI/f/78ZjLtkAceSE48MTn00E4BAACGR+CEbjNjRtPprPde1qm1ndqMs87KwoGBwW2vbTilrPPq5334w8nYsU2xTqy9885k0aImDAMAwAj4FyR0m7e8JZk3L7nnnj3baqeXmPn+9+d9RxyRk8uPB7rP2VvWZWVNrJ978cWDtUGrVjXnSRcv7hQAAGD4BE7oNpMnJ+9+d9PhfPzxTrGEzPnzM2vRolzR25sjOrUDYWJZNWJeeNhh6b3uusHaoHof6O23J6eeuu+ZTgAAGCaBE7rRggXJ0UcnP/xhp1DU6bWf+UzOLwHw6rFjcyBOVI4r64yenvzjlCl58+c/nyxc2Dyo1qxJ1q5NPv7xTgEAAEZG4IRuVAf0fPCDyb33JitWdIrFySen5+qrc8mRR+aGMWMyq1PeH3Vb7pklbF7b25uTL744PZ/8ZDJhQvOwDixaurSZTHvaaU0NAABGSOCEbnXuuckFFySf+lSyfn1TKwGx56yzMmnZsiyeMye3lNL85smI1b7l8okTs2Dx4kz42teas6PVrl3NVtra4fzoR5Np05o6AACMkMAJ3ap2G7/+9WZr7Ze/nPzhD0197Nj0vPOd6b3//vzdhRdmZW9v/nnMmNS4WIf/dObL7qN2M8eXNbmsM8v6t3HjcvNBB+VvvvrVjLvxxmT27MEwO+g3v0m+852mw3pmebfptAAA7Keeo48/ZaDz+n/19GP/1XkF/FU88kjysY81W1u/8pXk8MP3hMOtWzOwbFmyfHk2P/VU/n3DhvznwECeLI92lPfUS1XqOc1ppTav/Hfh5MlZUH597zvekbGf/WwznGjI7t1N2KxnNuu9m9/6VnNFCwAAo8YxJ9R/NR44Aid0uxIW84tfJHWC7AknJJ/7XBMI9+48Pv98ct99GXjwwfQ891x2vfBCtu/YkV0lRE6aMCEHHXRQE1Trrz/jjOT005Pe2g/t+OMfk7vuSq65pnnPtdc2nVUAAEYVgRNGo9dfT+6/P/nud5OXXkrqRNmLLuo83Et/f/K73w12PgevNak/jx+fTJ3aTLmt93kOdUeH1Pd///vJHXck552XfOELycyZnYcAAIwmAieMVn19yYYNybe/ndx2W3L++UndFvu2t3XeMEI1jNYJuDVsbt+efOlLzaCiGk4BABiVDnTg3GtPHtDVxo1LZs1Krr8+WbIk+eUvk3POSS69tLkvs57BHI4aLuuVJ+96V3Nesw4MuuWW5AMfEDYBADigdDjhjeq115Jbb01+8pPk0UebMHrKKcncuc35y0MOabbT7tiRbNzYXK3yq1/tCadnn53UuzfreU4AAChsqQX2VTuW69Ylq1c3gXLTpqa2c2ezbbZ2RidNSg4+ODnqqGRe+Uukhsw5czq/AQAANARO4M/bsiXZtq3pbA4NDZoyJTn00KROqwUAgP+DwAkAAEArDA0CAADgDUHgBAAAoBUCJwAAAK0QOAEAAGiFwAkAAEArBE4AAABaIXACAADQCoETAACAVgicAAAAtELgBAAAoBUCJwAAAK0QOAEAAGiFwAkAAEArBE4AAABaIXACAADQCoETAACAVgicAAAAtELgBAAAoBUCJwAAAK0QOAEAAGiFwAkAAEArBE4AAABaIXACAADQCoETAACAVgicAAAAtELgBAAAoBUCJwAAAK0QOAEAAGiFwAkAAEArBE4AAABaIXACAADQCoETAACAVgicAAAAtELgBAAAoBUCJwAAAK0QOAEAAGiFwAkAAEArBE4AAABaIXACAADQCoETAACAVgicAAAAtELgBAAAoBUCJwAAAK0QOAEAAGiFwAkAAEArBE4AAABaIXACAADQCoETAACAVgicAAAAtELgBAAAoBU9Rx9/ykDnNQAAABwwOpwAAAC0QuAEAACgFQInAAAArRA4AQAAaIXACQAAQCsETgAAAFohcAIAANCC5H8AANjxIkilU94AAAAASUVORK5CYII=;" vertex="1" parent="1">
          <mxGeometry x="50" y="128" width="693" height="255" as="geometry" />
        </mxCell>
      </root>
    </mxGraphModel>
  </diagram>
  <diagram id="4HrqAXYbgpXlenFdok90" name="Ordem">
    <mxGraphModel grid="0" page="0" gridSize="10" guides="1" tooltips="1" connect="1" arrows="1" fold="1" pageScale="1" pageWidth="850" pageHeight="1100" math="0" shadow="0">
      <root>
        <mxCell id="0" />
        <mxCell id="1" parent="0" />
        <mxCell id="-iaLMvA0gofRznEHuEyK-1" style="edgeStyle=orthogonalEdgeStyle;rounded=0;orthogonalLoop=1;jettySize=auto;html=1;shadow=0;" edge="1" parent="1" source="-iaLMvA0gofRznEHuEyK-17" target="-iaLMvA0gofRznEHuEyK-12">
          <mxGeometry relative="1" as="geometry">
            <Array as="points">
              <mxPoint x="30" y="2171" />
            </Array>
          </mxGeometry>
        </mxCell>
        <mxCell id="-iaLMvA0gofRznEHuEyK-2" style="edgeStyle=orthogonalEdgeStyle;rounded=0;orthogonalLoop=1;jettySize=auto;html=1;entryX=0;entryY=0.5;entryDx=0;entryDy=0;" edge="1" parent="1" source="-iaLMvA0gofRznEHuEyK-3" target="-iaLMvA0gofRznEHuEyK-7">
          <mxGeometry relative="1" as="geometry">
            <mxPoint x="-339" y="2005" as="targetPoint" />
          </mxGeometry>
        </mxCell>
        <mxCell id="-iaLMvA0gofRznEHuEyK-3" value="" style="ellipse;html=1;shape=startState;fillColor=#000000;strokeColor=#ff0000;" vertex="1" parent="1">
          <mxGeometry x="-500" y="1990" width="30" height="30" as="geometry" />
        </mxCell>
        <mxCell id="-iaLMvA0gofRznEHuEyK-4" value="&lt;div&gt;&lt;font style=&quot;font-size: 10px;&quot;&gt;Enviar Ordem&lt;/font&gt;&lt;/div&gt;" style="text;html=1;align=center;verticalAlign=middle;resizable=0;points=[];autosize=1;strokeColor=none;fillColor=none;" vertex="1" parent="1">
          <mxGeometry x="-445" y="1978" width="90" height="30" as="geometry" />
        </mxCell>
        <mxCell id="-iaLMvA0gofRznEHuEyK-5" style="edgeStyle=orthogonalEdgeStyle;rounded=0;orthogonalLoop=1;jettySize=auto;html=1;exitX=1;exitY=0.5;exitDx=0;exitDy=0;entryX=0;entryY=0.5;entryDx=0;entryDy=0;" edge="1" parent="1" source="-iaLMvA0gofRznEHuEyK-7" target="-iaLMvA0gofRznEHuEyK-11">
          <mxGeometry relative="1" as="geometry">
            <mxPoint x="-100" y="2005" as="targetPoint" />
          </mxGeometry>
        </mxCell>
        <mxCell id="-iaLMvA0gofRznEHuEyK-6" style="edgeStyle=orthogonalEdgeStyle;rounded=0;orthogonalLoop=1;jettySize=auto;html=1;entryX=0.5;entryY=0;entryDx=0;entryDy=0;" edge="1" parent="1" source="-iaLMvA0gofRznEHuEyK-7" target="-iaLMvA0gofRznEHuEyK-14">
          <mxGeometry relative="1" as="geometry" />
        </mxCell>
        <mxCell id="-iaLMvA0gofRznEHuEyK-7" value="" style="ellipse;" vertex="1" parent="1">
          <mxGeometry x="-270" y="1995.5" width="21" height="19" as="geometry" />
        </mxCell>
        <mxCell id="-iaLMvA0gofRznEHuEyK-8" value="&lt;font style=&quot;font-size: 10px;&quot;&gt;Ordem com Gatiho?&lt;/font&gt;" style="text;html=1;align=center;verticalAlign=middle;resizable=0;points=[];autosize=1;strokeColor=none;fillColor=none;" vertex="1" parent="1">
          <mxGeometry x="-314.5" y="1965.5" width="110" height="30" as="geometry" />
        </mxCell>
        <mxCell id="-iaLMvA0gofRznEHuEyK-9" value="&lt;font style=&quot;font-size: 10px;&quot;&gt;[Se não]&lt;/font&gt;" style="text;html=1;align=center;verticalAlign=middle;resizable=0;points=[];autosize=1;strokeColor=none;fillColor=none;" vertex="1" parent="1">
          <mxGeometry x="-204.5" y="1979" width="60" height="30" as="geometry" />
        </mxCell>
        <mxCell id="-iaLMvA0gofRznEHuEyK-10" style="edgeStyle=orthogonalEdgeStyle;rounded=0;orthogonalLoop=1;jettySize=auto;html=1;entryX=0;entryY=0.5;entryDx=0;entryDy=0;" edge="1" parent="1" source="-iaLMvA0gofRznEHuEyK-11" target="-iaLMvA0gofRznEHuEyK-24">
          <mxGeometry relative="1" as="geometry" />
        </mxCell>
        <mxCell id="-iaLMvA0gofRznEHuEyK-11" value="&lt;span style=&quot;font-size: 10px;&quot;&gt;&lt;b&gt;Criando Ordem&lt;/b&gt;&lt;/span&gt;" style="swimlane;fontStyle=4;align=center;verticalAlign=top;childLayout=stackLayout;horizontal=1;startSize=29;horizontalStack=0;resizeParent=1;resizeParentMax=0;resizeLast=0;collapsible=0;marginBottom=0;html=1;rounded=1;absoluteArcSize=1;arcSize=32;whiteSpace=wrap;" vertex="1" parent="1">
          <mxGeometry x="-85" y="1975.5" width="130" height="59" as="geometry" />
        </mxCell>
        <mxCell id="-iaLMvA0gofRznEHuEyK-12" value="&lt;font style=&quot;font-size: 10px;&quot;&gt;do/enviarOrdem()&amp;nbsp;&lt;/font&gt;" style="text;html=1;align=center;verticalAlign=middle;resizable=0;points=[];autosize=1;strokeColor=none;fillColor=none;" vertex="1" parent="-iaLMvA0gofRznEHuEyK-11">
          <mxGeometry y="29" width="130" height="30" as="geometry" />
        </mxCell>
        <mxCell id="-iaLMvA0gofRznEHuEyK-13" style="edgeStyle=orthogonalEdgeStyle;rounded=0;orthogonalLoop=1;jettySize=auto;html=1;entryX=0;entryY=0.5;entryDx=0;entryDy=0;" edge="1" parent="1" source="-iaLMvA0gofRznEHuEyK-14" target="-iaLMvA0gofRznEHuEyK-17">
          <mxGeometry relative="1" as="geometry" />
        </mxCell>
        <mxCell id="-iaLMvA0gofRznEHuEyK-14" value="&lt;span style=&quot;font-size: 10px;&quot;&gt;&lt;b&gt;Criando Ordem Pendente&lt;/b&gt;&lt;/span&gt;" style="swimlane;fontStyle=4;align=center;verticalAlign=top;childLayout=stackLayout;horizontal=1;startSize=29;horizontalStack=0;resizeParent=1;resizeParentMax=0;resizeLast=0;collapsible=0;marginBottom=0;html=1;rounded=1;absoluteArcSize=1;arcSize=32;whiteSpace=wrap;" vertex="1" parent="1">
          <mxGeometry x="-324.5" y="2141" width="130" height="59" as="geometry" />
        </mxCell>
        <mxCell id="-iaLMvA0gofRznEHuEyK-15" value="&lt;font style=&quot;font-size: 10px;&quot;&gt;do/enviarOrdem()&amp;nbsp;&lt;/font&gt;" style="text;html=1;align=center;verticalAlign=middle;resizable=0;points=[];autosize=1;strokeColor=none;fillColor=none;" vertex="1" parent="-iaLMvA0gofRznEHuEyK-14">
          <mxGeometry y="29" width="130" height="30" as="geometry" />
        </mxCell>
        <mxCell id="-iaLMvA0gofRznEHuEyK-16" value="&lt;font style=&quot;font-size: 10px;&quot;&gt;[Se sim]&lt;/font&gt;" style="text;html=1;align=center;verticalAlign=middle;resizable=0;points=[];autosize=1;strokeColor=none;fillColor=none;" vertex="1" parent="1">
          <mxGeometry x="-269" y="2060" width="60" height="30" as="geometry" />
        </mxCell>
        <mxCell id="-iaLMvA0gofRznEHuEyK-17" value="" style="ellipse;" vertex="1" parent="1">
          <mxGeometry x="-50" y="2161" width="21" height="19" as="geometry" />
        </mxCell>
        <mxCell id="-iaLMvA0gofRznEHuEyK-18" value="&lt;font style=&quot;font-size: 10px;&quot;&gt;Parâmetros atingidos?&lt;/font&gt;" style="text;html=1;align=center;verticalAlign=middle;resizable=0;points=[];autosize=1;strokeColor=none;fillColor=none;" vertex="1" parent="1">
          <mxGeometry x="-99.5" y="2136" width="120" height="30" as="geometry" />
        </mxCell>
        <mxCell id="-iaLMvA0gofRznEHuEyK-19" style="edgeStyle=orthogonalEdgeStyle;rounded=0;orthogonalLoop=1;jettySize=auto;html=1;entryX=0.476;entryY=0.99;entryDx=0;entryDy=0;entryPerimeter=0;" edge="1" parent="1" source="-iaLMvA0gofRznEHuEyK-17" target="-iaLMvA0gofRznEHuEyK-15">
          <mxGeometry relative="1" as="geometry">
            <Array as="points">
              <mxPoint x="-39" y="2220" />
              <mxPoint x="-263" y="2220" />
            </Array>
          </mxGeometry>
        </mxCell>
        <mxCell id="-iaLMvA0gofRznEHuEyK-20" value="&lt;font style=&quot;font-size: 10px;&quot;&gt;[Se não, espera atingir o valor do gatilho]&lt;/font&gt;" style="text;html=1;align=center;verticalAlign=middle;resizable=0;points=[];autosize=1;strokeColor=none;fillColor=none;" vertex="1" parent="1">
          <mxGeometry x="-254" y="2218" width="210" height="30" as="geometry" />
        </mxCell>
        <mxCell id="-iaLMvA0gofRznEHuEyK-21" value="&lt;font style=&quot;font-size: 10px;&quot;&gt;[Se sim]&lt;/font&gt;" style="text;html=1;align=center;verticalAlign=middle;resizable=0;points=[];autosize=1;strokeColor=none;fillColor=none;" vertex="1" parent="1">
          <mxGeometry x="-20" y="2074" width="60" height="30" as="geometry" />
        </mxCell>
        <mxCell id="-iaLMvA0gofRznEHuEyK-22" style="edgeStyle=orthogonalEdgeStyle;rounded=0;orthogonalLoop=1;jettySize=auto;html=1;entryX=0.5;entryY=0;entryDx=0;entryDy=0;" edge="1" parent="1" source="-iaLMvA0gofRznEHuEyK-24" target="-iaLMvA0gofRznEHuEyK-27">
          <mxGeometry relative="1" as="geometry" />
        </mxCell>
        <mxCell id="-iaLMvA0gofRznEHuEyK-23" style="edgeStyle=orthogonalEdgeStyle;rounded=0;orthogonalLoop=1;jettySize=auto;html=1;" edge="1" parent="1" source="-iaLMvA0gofRznEHuEyK-24">
          <mxGeometry relative="1" as="geometry">
            <mxPoint x="350" y="2004.9999999999998" as="targetPoint" />
          </mxGeometry>
        </mxCell>
        <mxCell id="-iaLMvA0gofRznEHuEyK-24" value="" style="ellipse;" vertex="1" parent="1">
          <mxGeometry x="210" y="1995.5" width="21" height="19" as="geometry" />
        </mxCell>
        <mxCell id="-iaLMvA0gofRznEHuEyK-25" value="&lt;font style=&quot;font-size: 10px;&quot;&gt;Está no horário de negociações?&lt;/font&gt;" style="text;html=1;align=center;verticalAlign=middle;resizable=0;points=[];autosize=1;strokeColor=none;fillColor=none;" vertex="1" parent="1">
          <mxGeometry x="135.5" y="1965.5" width="170" height="30" as="geometry" />
        </mxCell>
        <mxCell id="-iaLMvA0gofRznEHuEyK-26" style="edgeStyle=orthogonalEdgeStyle;rounded=0;orthogonalLoop=1;jettySize=auto;html=1;entryX=0;entryY=0.5;entryDx=0;entryDy=0;" edge="1" parent="1" source="-iaLMvA0gofRznEHuEyK-27" target="-iaLMvA0gofRznEHuEyK-42">
          <mxGeometry relative="1" as="geometry" />
        </mxCell>
        <mxCell id="-iaLMvA0gofRznEHuEyK-27" value="&lt;span style=&quot;font-size: 10px;&quot;&gt;&lt;b&gt;Processa Ordem na&lt;/b&gt;&lt;/span&gt;&lt;div&gt;&lt;span style=&quot;font-size: 10px;&quot;&gt;&lt;b&gt;Bolsa&lt;/b&gt;&lt;/span&gt;&lt;/div&gt;" style="swimlane;fontStyle=4;align=center;verticalAlign=top;childLayout=stackLayout;horizontal=1;startSize=39;horizontalStack=0;resizeParent=1;resizeParentMax=0;resizeLast=0;collapsible=0;marginBottom=0;html=1;rounded=1;absoluteArcSize=1;arcSize=32;whiteSpace=wrap;" vertex="1" parent="1">
          <mxGeometry x="155.5" y="2141" width="130" height="69" as="geometry" />
        </mxCell>
        <mxCell id="-iaLMvA0gofRznEHuEyK-28" value="&lt;font style=&quot;font-size: 10px;&quot;&gt;do/processaOrdem()&amp;nbsp;&lt;/font&gt;" style="text;html=1;align=center;verticalAlign=middle;resizable=0;points=[];autosize=1;strokeColor=none;fillColor=none;" vertex="1" parent="-iaLMvA0gofRznEHuEyK-27">
          <mxGeometry y="39" width="130" height="30" as="geometry" />
        </mxCell>
        <mxCell id="-iaLMvA0gofRznEHuEyK-29" value="&lt;font style=&quot;font-size: 10px;&quot;&gt;[Se sim]&lt;/font&gt;" style="text;html=1;align=center;verticalAlign=middle;resizable=0;points=[];autosize=1;strokeColor=none;fillColor=none;" vertex="1" parent="1">
          <mxGeometry x="170" y="2060" width="60" height="30" as="geometry" />
        </mxCell>
        <mxCell id="-iaLMvA0gofRznEHuEyK-30" value="&lt;span style=&quot;font-size: 10px;&quot;&gt;&lt;b&gt;Agenda o Processamento da Ordem na&amp;nbsp;&lt;/b&gt;&lt;/span&gt;&lt;b style=&quot;font-size: 10px; background-color: initial;&quot;&gt;Bolsa&lt;/b&gt;" style="swimlane;fontStyle=4;align=center;verticalAlign=top;childLayout=stackLayout;horizontal=1;startSize=39;horizontalStack=0;resizeParent=1;resizeParentMax=0;resizeLast=0;collapsible=0;marginBottom=0;html=1;rounded=1;absoluteArcSize=1;arcSize=32;whiteSpace=wrap;" vertex="1" parent="1">
          <mxGeometry x="350" y="1970.5" width="130" height="69" as="geometry" />
        </mxCell>
        <mxCell id="-iaLMvA0gofRznEHuEyK-31" value="&lt;font style=&quot;font-size: 10px;&quot;&gt;do/processaOrdem()&amp;nbsp;&lt;/font&gt;" style="text;html=1;align=center;verticalAlign=middle;resizable=0;points=[];autosize=1;strokeColor=none;fillColor=none;" vertex="1" parent="-iaLMvA0gofRznEHuEyK-30">
          <mxGeometry y="39" width="130" height="30" as="geometry" />
        </mxCell>
        <mxCell id="-iaLMvA0gofRznEHuEyK-32" value="&lt;font style=&quot;font-size: 10px;&quot;&gt;[Se não]&lt;/font&gt;" style="text;html=1;align=center;verticalAlign=middle;resizable=0;points=[];autosize=1;strokeColor=none;fillColor=none;" vertex="1" parent="1">
          <mxGeometry x="260" y="1998" width="60" height="30" as="geometry" />
        </mxCell>
        <mxCell id="-iaLMvA0gofRznEHuEyK-33" style="edgeStyle=orthogonalEdgeStyle;rounded=0;orthogonalLoop=1;jettySize=auto;html=1;entryX=0.75;entryY=0;entryDx=0;entryDy=0;" edge="1" parent="1" source="-iaLMvA0gofRznEHuEyK-34" target="-iaLMvA0gofRznEHuEyK-27">
          <mxGeometry relative="1" as="geometry">
            <mxPoint x="286" y="2176" as="targetPoint" />
          </mxGeometry>
        </mxCell>
        <mxCell id="-iaLMvA0gofRznEHuEyK-34" value="" style="ellipse;" vertex="1" parent="1">
          <mxGeometry x="404" y="2092" width="21" height="19" as="geometry" />
        </mxCell>
        <mxCell id="-iaLMvA0gofRznEHuEyK-35" value="&lt;font style=&quot;font-size: 10px;&quot;&gt;Horário de negociações?&lt;/font&gt;" style="text;html=1;align=center;verticalAlign=middle;resizable=0;points=[];autosize=1;strokeColor=none;fillColor=none;" vertex="1" parent="1">
          <mxGeometry x="350" y="2104" width="130" height="30" as="geometry" />
        </mxCell>
        <mxCell id="-iaLMvA0gofRznEHuEyK-36" style="edgeStyle=orthogonalEdgeStyle;rounded=0;orthogonalLoop=1;jettySize=auto;html=1;entryX=0.5;entryY=0;entryDx=0;entryDy=0;" edge="1" parent="1" source="-iaLMvA0gofRznEHuEyK-31" target="-iaLMvA0gofRznEHuEyK-34">
          <mxGeometry relative="1" as="geometry" />
        </mxCell>
        <mxCell id="-iaLMvA0gofRznEHuEyK-37" value="&lt;font style=&quot;font-size: 10px;&quot;&gt;[Se sim]&lt;/font&gt;" style="text;html=1;align=center;verticalAlign=middle;resizable=0;points=[];autosize=1;strokeColor=none;fillColor=none;" vertex="1" parent="1">
          <mxGeometry x="304.5" y="2076" width="60" height="30" as="geometry" />
        </mxCell>
        <mxCell id="-iaLMvA0gofRznEHuEyK-38" style="edgeStyle=orthogonalEdgeStyle;rounded=0;orthogonalLoop=1;jettySize=auto;html=1;exitX=1;exitY=0.5;exitDx=0;exitDy=0;entryX=0.692;entryY=1.017;entryDx=0;entryDy=0;entryPerimeter=0;" edge="1" parent="1" source="-iaLMvA0gofRznEHuEyK-34" target="-iaLMvA0gofRznEHuEyK-31">
          <mxGeometry relative="1" as="geometry">
            <Array as="points">
              <mxPoint x="440" y="2102" />
            </Array>
          </mxGeometry>
        </mxCell>
        <mxCell id="-iaLMvA0gofRznEHuEyK-39" value="&lt;font style=&quot;font-size: 10px;&quot;&gt;[Se não]&lt;/font&gt;" style="text;html=1;align=center;verticalAlign=middle;resizable=0;points=[];autosize=1;strokeColor=none;fillColor=none;" vertex="1" parent="1">
          <mxGeometry x="430" y="2050" width="60" height="30" as="geometry" />
        </mxCell>
        <mxCell id="-iaLMvA0gofRznEHuEyK-40" style="edgeStyle=orthogonalEdgeStyle;rounded=0;orthogonalLoop=1;jettySize=auto;html=1;entryX=0.5;entryY=0;entryDx=0;entryDy=0;" edge="1" parent="1" source="-iaLMvA0gofRznEHuEyK-42" target="-iaLMvA0gofRznEHuEyK-44">
          <mxGeometry relative="1" as="geometry" />
        </mxCell>
        <mxCell id="-iaLMvA0gofRznEHuEyK-41" style="edgeStyle=orthogonalEdgeStyle;rounded=0;orthogonalLoop=1;jettySize=auto;html=1;entryX=0;entryY=0.5;entryDx=0;entryDy=0;" edge="1" parent="1" source="-iaLMvA0gofRznEHuEyK-42" target="-iaLMvA0gofRznEHuEyK-50">
          <mxGeometry relative="1" as="geometry" />
        </mxCell>
        <mxCell id="-iaLMvA0gofRznEHuEyK-42" value="" style="ellipse;" vertex="1" parent="1">
          <mxGeometry x="570" y="2166" width="21" height="19" as="geometry" />
        </mxCell>
        <mxCell id="-iaLMvA0gofRznEHuEyK-43" value="&lt;font style=&quot;font-size: 10px;&quot;&gt;Usuário deseja modificar a Ordem?&lt;/font&gt;" style="text;html=1;align=center;verticalAlign=middle;resizable=0;points=[];autosize=1;strokeColor=none;fillColor=none;" vertex="1" parent="1">
          <mxGeometry x="475" y="2140" width="180" height="30" as="geometry" />
        </mxCell>
        <mxCell id="-iaLMvA0gofRznEHuEyK-44" value="&lt;span style=&quot;font-size: 10px;&quot;&gt;&lt;b&gt;Modificar Ordem&lt;/b&gt;&lt;/span&gt;" style="swimlane;fontStyle=4;align=center;verticalAlign=top;childLayout=stackLayout;horizontal=1;startSize=30;horizontalStack=0;resizeParent=1;resizeParentMax=0;resizeLast=0;collapsible=0;marginBottom=0;html=1;rounded=1;absoluteArcSize=1;arcSize=32;whiteSpace=wrap;" vertex="1" parent="1">
          <mxGeometry x="515.5" y="2270" width="130" height="60" as="geometry" />
        </mxCell>
        <mxCell id="-iaLMvA0gofRznEHuEyK-45" value="&lt;font style=&quot;font-size: 10px;&quot;&gt;do/modificarOrdem()&amp;nbsp;&lt;/font&gt;" style="text;html=1;align=center;verticalAlign=middle;resizable=0;points=[];autosize=1;strokeColor=none;fillColor=none;" vertex="1" parent="-iaLMvA0gofRznEHuEyK-44">
          <mxGeometry y="30" width="130" height="30" as="geometry" />
        </mxCell>
        <mxCell id="-iaLMvA0gofRznEHuEyK-46" value="&lt;font style=&quot;font-size: 10px;&quot;&gt;[Se sim]&lt;/font&gt;" style="text;html=1;align=center;verticalAlign=middle;resizable=0;points=[];autosize=1;strokeColor=none;fillColor=none;" vertex="1" parent="1">
          <mxGeometry x="525" y="2210" width="60" height="30" as="geometry" />
        </mxCell>
        <mxCell id="-iaLMvA0gofRznEHuEyK-47" style="edgeStyle=orthogonalEdgeStyle;rounded=0;orthogonalLoop=1;jettySize=auto;html=1;entryX=1.001;entryY=0.609;entryDx=0;entryDy=0;entryPerimeter=0;" edge="1" parent="1" source="-iaLMvA0gofRznEHuEyK-44" target="-iaLMvA0gofRznEHuEyK-12">
          <mxGeometry relative="1" as="geometry">
            <Array as="points">
              <mxPoint x="100" y="2300" />
              <mxPoint x="100" y="2023" />
            </Array>
          </mxGeometry>
        </mxCell>
        <mxCell id="-iaLMvA0gofRznEHuEyK-48" style="edgeStyle=orthogonalEdgeStyle;rounded=0;orthogonalLoop=1;jettySize=auto;html=1;entryX=0.5;entryY=0;entryDx=0;entryDy=0;" edge="1" parent="1" source="-iaLMvA0gofRznEHuEyK-50" target="-iaLMvA0gofRznEHuEyK-54">
          <mxGeometry relative="1" as="geometry" />
        </mxCell>
        <mxCell id="-iaLMvA0gofRznEHuEyK-49" style="edgeStyle=orthogonalEdgeStyle;rounded=0;orthogonalLoop=1;jettySize=auto;html=1;entryX=0;entryY=0.5;entryDx=0;entryDy=0;" edge="1" parent="1" source="-iaLMvA0gofRznEHuEyK-50" target="-iaLMvA0gofRznEHuEyK-58">
          <mxGeometry relative="1" as="geometry" />
        </mxCell>
        <mxCell id="-iaLMvA0gofRznEHuEyK-50" value="" style="ellipse;" vertex="1" parent="1">
          <mxGeometry x="760" y="2166" width="21" height="19" as="geometry" />
        </mxCell>
        <mxCell id="-iaLMvA0gofRznEHuEyK-51" value="&lt;font style=&quot;font-size: 10px;&quot;&gt;Deseja cancelar a Ordem?&lt;/font&gt;" style="text;html=1;align=center;verticalAlign=middle;resizable=0;points=[];autosize=1;strokeColor=none;fillColor=none;" vertex="1" parent="1">
          <mxGeometry x="700.5" y="2141" width="140" height="30" as="geometry" />
        </mxCell>
        <mxCell id="-iaLMvA0gofRznEHuEyK-52" value="&lt;font style=&quot;font-size: 10px;&quot;&gt;[Se não]&lt;/font&gt;" style="text;html=1;align=center;verticalAlign=middle;resizable=0;points=[];autosize=1;strokeColor=none;fillColor=none;" vertex="1" parent="1">
          <mxGeometry x="645.5" y="2170" width="60" height="30" as="geometry" />
        </mxCell>
        <mxCell id="-iaLMvA0gofRznEHuEyK-53" style="edgeStyle=orthogonalEdgeStyle;rounded=0;orthogonalLoop=1;jettySize=auto;html=1;entryX=0;entryY=0.5;entryDx=0;entryDy=0;" edge="1" parent="1" source="-iaLMvA0gofRznEHuEyK-54" target="-iaLMvA0gofRznEHuEyK-61">
          <mxGeometry relative="1" as="geometry" />
        </mxCell>
        <mxCell id="-iaLMvA0gofRznEHuEyK-54" value="&lt;span style=&quot;font-size: 10px;&quot;&gt;&lt;b&gt;Cancelar Ordem&lt;/b&gt;&lt;/span&gt;" style="swimlane;fontStyle=4;align=center;verticalAlign=top;childLayout=stackLayout;horizontal=1;startSize=30;horizontalStack=0;resizeParent=1;resizeParentMax=0;resizeLast=0;collapsible=0;marginBottom=0;html=1;rounded=1;absoluteArcSize=1;arcSize=32;whiteSpace=wrap;" vertex="1" parent="1">
          <mxGeometry x="705.5" y="2270" width="130" height="60" as="geometry" />
        </mxCell>
        <mxCell id="-iaLMvA0gofRznEHuEyK-55" value="&lt;font style=&quot;font-size: 10px;&quot;&gt;do/cancelarOrdem()&amp;nbsp;&lt;/font&gt;" style="text;html=1;align=center;verticalAlign=middle;resizable=0;points=[];autosize=1;strokeColor=none;fillColor=none;" vertex="1" parent="-iaLMvA0gofRznEHuEyK-54">
          <mxGeometry y="30" width="130" height="30" as="geometry" />
        </mxCell>
        <mxCell id="-iaLMvA0gofRznEHuEyK-56" value="&lt;font style=&quot;font-size: 10px;&quot;&gt;[Se sim]&lt;/font&gt;" style="text;html=1;align=center;verticalAlign=middle;resizable=0;points=[];autosize=1;strokeColor=none;fillColor=none;" vertex="1" parent="1">
          <mxGeometry x="720" y="2210" width="60" height="30" as="geometry" />
        </mxCell>
        <mxCell id="-iaLMvA0gofRznEHuEyK-57" style="edgeStyle=orthogonalEdgeStyle;rounded=0;orthogonalLoop=1;jettySize=auto;html=1;entryX=0;entryY=0.5;entryDx=0;entryDy=0;" edge="1" parent="1" source="-iaLMvA0gofRznEHuEyK-58" target="-iaLMvA0gofRznEHuEyK-62">
          <mxGeometry relative="1" as="geometry" />
        </mxCell>
        <mxCell id="-iaLMvA0gofRznEHuEyK-58" value="&lt;span style=&quot;font-size: 10px;&quot;&gt;&lt;b&gt;Processa a Ordem&lt;/b&gt;&lt;/span&gt;" style="swimlane;fontStyle=4;align=center;verticalAlign=top;childLayout=stackLayout;horizontal=1;startSize=30;horizontalStack=0;resizeParent=1;resizeParentMax=0;resizeLast=0;collapsible=0;marginBottom=0;html=1;rounded=1;absoluteArcSize=1;arcSize=32;whiteSpace=wrap;" vertex="1" parent="1">
          <mxGeometry x="930" y="2145.5" width="130" height="60" as="geometry" />
        </mxCell>
        <mxCell id="-iaLMvA0gofRznEHuEyK-59" value="&lt;font style=&quot;font-size: 10px;&quot;&gt;do/processarOrdem()&amp;nbsp;&lt;/font&gt;" style="text;html=1;align=center;verticalAlign=middle;resizable=0;points=[];autosize=1;strokeColor=none;fillColor=none;" vertex="1" parent="-iaLMvA0gofRznEHuEyK-58">
          <mxGeometry y="30" width="130" height="30" as="geometry" />
        </mxCell>
        <mxCell id="-iaLMvA0gofRznEHuEyK-60" value="&lt;font style=&quot;font-size: 10px;&quot;&gt;[Se não]&lt;/font&gt;" style="text;html=1;align=center;verticalAlign=middle;resizable=0;points=[];autosize=1;strokeColor=none;fillColor=none;" vertex="1" parent="1">
          <mxGeometry x="830" y="2170" width="60" height="30" as="geometry" />
        </mxCell>
        <mxCell id="-iaLMvA0gofRznEHuEyK-61" value="" style="ellipse;html=1;shape=endState;fillColor=#000000;strokeColor=#ff0000;" vertex="1" parent="1">
          <mxGeometry x="930" y="2285" width="30" height="30" as="geometry" />
        </mxCell>
        <mxCell id="-iaLMvA0gofRznEHuEyK-62" value="" style="ellipse;html=1;shape=endState;fillColor=#000000;strokeColor=#ff0000;" vertex="1" parent="1">
          <mxGeometry x="1126" y="2161" width="30" height="30" as="geometry" />
        </mxCell>
      </root>
    </mxGraphModel>
  </diagram>
</mxfile>
